{"glyphs":{" ":{"ha":306,"x_min":0,"x_max":0,"o":""},"上":{"ha":1389,"x_min":82,"x_max":1308,"o":"m 651 671 l 1215 671 l 1215 631 l 651 631 l 651 671 m 82 7 l 1308 7 l 1308 -33 l 82 -33 l 82 7 m 626 1129 l 667 1129 l 667 -11 l 626 -11 l 626 1129 z "},"下":{"ha":1389,"x_min":82,"x_max":1308,"o":"m 82 1050 l 1308 1050 l 1308 1008 l 82 1008 l 82 1050 m 649 1036 l 689 1036 l 689 -97 l 649 -97 l 649 1036 m 675 714 l 699 742 q 840 671 767 710 q 983 591 913 632 q 1113 512 1053 550 q 1217 443 1174 474 l 1193 407 q 1090 478 1150 439 q 959 558 1029 517 q 816 640 889 600 q 675 714 743 681 z "},"不":{"ha":1389,"x_min":76,"x_max":1313,"o":"m 103 1051 l 1285 1051 l 1285 1010 l 103 1010 l 103 1051 m 793 707 l 819 732 q 956 647 886 693 q 1093 553 1026 601 q 1217 458 1160 504 q 1313 374 1274 413 l 1285 342 q 1189 428 1246 381 q 1066 524 1132 475 q 930 621 1000 574 q 793 707 860 668 m 797 1040 l 838 1024 q 647 751 760 883 q 397 506 535 618 q 104 310 260 393 q 96 319 101 314 q 85 331 90 325 q 76 340 81 336 q 298 479 192 401 q 498 648 404 557 q 667 838 592 739 q 797 1040 743 938 m 671 822 l 713 863 l 713 863 l 713 -96 l 671 -96 l 671 822 z "},"他":{"ha":1389,"x_min":32,"x_max":1325,"o":"m 878 1154 l 919 1154 l 919 192 l 878 192 l 878 1154 m 379 556 l 1225 882 l 1242 844 l 394 518 l 379 556 m 565 1029 l 606 1029 l 606 54 q 616 -5 606 17 q 654 -35 626 -26 q 735 -44 682 -44 q 793 -44 751 -44 q 890 -44 835 -44 q 1000 -44 944 -44 q 1101 -44 1056 -44 q 1168 -44 1146 -44 q 1236 -26 1214 -44 q 1268 38 1258 -8 q 1282 168 1278 83 q 1303 157 1292 163 q 1325 149 1315 151 q 1306 10 1319 61 q 1260 -63 1293 -42 q 1161 -85 1228 -85 q 1109 -85 1151 -85 q 1009 -85 1067 -85 q 894 -85 951 -85 q 794 -85 836 -85 q 742 -85 751 -85 q 636 -74 675 -85 q 581 -32 597 -62 q 565 56 565 -1 l 565 1029 m 404 1149 l 444 1138 q 338 910 399 1021 q 206 702 276 799 q 61 529 136 606 q 53 540 58 533 q 43 553 49 546 q 32 563 38 560 q 176 728 107 635 q 303 930 244 822 q 404 1149 363 1038 m 250 817 l 288 856 l 290 854 l 290 -94 l 250 -94 l 250 817 m 1207 863 l 1192 863 l 1221 892 l 1253 881 l 1250 869 q 1247 650 1250 767 q 1238 425 1243 533 q 1222 238 1232 317 l 1188 249 q 1197 381 1193 306 q 1202 540 1200 457 q 1206 707 1204 624 q 1207 863 1207 790 z "},"你":{"ha":1389,"x_min":32,"x_max":1317,"o":"m 667 1146 l 708 1138 q 649 921 683 1026 q 573 723 615 815 q 479 558 531 631 q 470 566 476 561 q 457 576 464 571 q 444 583 450 581 q 538 743 496 653 q 612 936 579 833 q 667 1146 644 1039 m 658 586 l 700 578 q 642 395 676 483 q 568 231 608 307 q 482 94 528 154 q 471 102 478 97 q 457 111 464 107 q 444 118 450 115 q 569 328 515 206 q 658 586 624 451 m 610 867 l 1290 867 l 1290 826 l 593 826 l 610 867 m 882 856 l 924 856 l 924 -31 q 915 -72 924 -58 q 886 -90 906 -85 q 826 -97 867 -96 q 724 -99 786 -99 q 716 -78 721 -90 q 706 -56 711 -65 q 803 -57 761 -57 q 860 -56 846 -57 q 877 -51 872 -56 q 882 -32 882 -46 l 882 856 m 1075 581 l 1113 592 q 1196 431 1157 517 q 1265 261 1235 344 q 1308 113 1294 178 l 1269 100 q 1226 249 1256 165 q 1157 419 1196 332 q 1075 581 1118 506 m 1274 867 l 1281 867 l 1290 869 l 1317 860 q 1285 716 1301 792 q 1254 590 1268 640 l 1218 599 q 1236 676 1226 632 q 1256 767 1246 719 q 1274 858 1265 815 l 1274 867 m 404 1149 l 444 1138 q 338 910 399 1021 q 206 702 276 799 q 61 529 136 606 q 53 540 58 533 q 43 553 49 546 q 32 563 38 560 q 176 728 107 635 q 303 930 244 822 q 404 1149 363 1038 m 250 817 l 288 856 l 290 854 l 290 -94 l 250 -94 l 250 817 z "},"倒":{"ha":1389,"x_min":32,"x_max":1254,"o":"m 417 636 q 413 650 415 642 q 408 667 411 658 q 401 681 406 675 q 431 700 417 683 q 458 742 444 717 q 497 805 471 760 q 553 911 524 850 q 603 1035 582 972 l 644 1014 q 556 826 604 918 q 456 665 507 733 l 456 664 q 450 662 456 664 q 436 656 444 660 q 422 647 428 651 q 417 636 417 642 m 417 636 l 417 669 l 451 689 l 853 733 q 865 718 858 728 q 876 701 871 708 q 640 672 728 683 q 506 654 551 661 q 443 644 461 647 q 417 636 425 640 m 354 1143 l 393 1135 q 302 903 354 1015 q 189 692 250 790 q 61 514 128 593 q 53 524 58 518 q 43 536 49 531 q 32 546 38 542 q 157 715 97 619 q 267 921 217 811 q 354 1143 318 1031 m 242 842 l 279 879 l 282 878 l 282 -99 l 242 -99 l 242 842 m 622 608 l 663 608 l 663 113 l 622 113 l 622 608 m 1018 1047 l 1060 1047 l 1060 239 l 1018 239 l 1018 1047 m 411 1043 l 933 1043 l 933 1001 l 411 1001 l 411 1043 m 389 428 l 906 428 l 906 386 l 389 386 l 389 428 m 354 68 q 522 103 428 83 q 722 145 617 122 q 935 192 828 168 l 938 156 q 631 86 782 121 q 364 26 479 51 l 354 68 m 739 881 l 769 896 q 836 805 803 854 q 898 709 869 756 q 942 628 926 663 l 911 607 q 867 690 894 643 q 806 788 839 738 q 739 881 772 838 m 1213 1117 l 1254 1117 l 1254 22 q 1242 -27 1254 -12 q 1204 -49 1229 -42 q 1128 -56 1178 -54 q 996 -57 1078 -57 q 987 -35 993 -47 q 974 -12 981 -22 q 1107 -15 1051 -14 q 1181 -14 1163 -15 q 1206 -5 1200 -12 q 1213 21 1213 3 l 1213 1117 z "},"可":{"ha":1389,"x_min":88,"x_max":1307,"o":"m 1085 1033 l 1126 1033 l 1126 -8 q 1115 -64 1126 -46 q 1071 -89 1103 -82 q 972 -94 1040 -94 q 804 -94 903 -94 q 799 -81 803 -89 q 793 -63 796 -72 q 786 -47 790 -54 q 902 -49 849 -49 q 994 -49 956 -50 q 1049 -49 1032 -49 q 1077 -38 1069 -46 q 1085 -8 1085 -31 l 1085 1033 m 244 756 l 285 756 l 285 143 l 244 143 l 244 756 m 261 756 l 790 756 l 790 258 l 261 258 l 261 300 l 749 300 l 749 715 l 261 715 l 261 756 m 88 1050 l 1307 1050 l 1307 1008 l 88 1008 l 88 1050 z "},"命":{"ha":1389,"x_min":68,"x_max":1325,"o":"m 431 782 l 946 782 l 946 740 l 431 740 l 431 782 m 217 590 l 586 590 l 586 140 l 217 140 l 217 182 l 544 182 l 544 550 l 217 550 l 217 590 m 772 593 l 1183 593 l 1183 553 l 813 553 l 813 -97 l 772 -97 l 772 593 m 1154 593 l 1196 593 l 1196 190 q 1188 148 1196 163 q 1157 126 1181 133 q 1083 119 1135 119 q 942 118 1032 118 q 935 140 940 128 q 925 161 931 151 q 1056 160 1003 160 q 1126 161 1108 160 q 1149 168 1143 163 q 1154 188 1154 174 l 1154 593 m 200 590 l 242 590 l 242 15 l 200 15 l 200 590 m 699 1164 l 733 1140 q 613 991 683 1064 q 458 853 543 918 q 281 738 374 789 q 93 654 188 686 q 82 676 89 664 q 68 696 75 688 q 253 773 161 725 q 430 884 346 821 q 583 1018 514 947 q 699 1164 651 1089 m 711 1115 q 829 990 760 1053 q 982 872 899 928 q 1153 773 1065 817 q 1325 703 1242 729 q 1313 691 1319 699 q 1300 676 1306 683 q 1290 661 1294 668 q 1120 737 1207 690 q 951 842 1033 783 q 798 966 868 901 q 678 1097 728 1031 l 711 1115 z "},"在":{"ha":1389,"x_min":74,"x_max":1296,"o":"m 97 917 l 1292 917 l 1292 875 l 97 875 l 97 917 m 506 486 l 1242 486 l 1242 446 l 506 446 l 506 486 m 450 -25 l 1296 -25 l 1296 -67 l 450 -67 l 450 -25 m 849 792 l 889 792 l 889 -49 l 849 -49 l 849 792 m 572 1153 l 614 1142 q 497 843 568 992 q 328 565 426 694 q 101 338 231 435 q 94 347 99 342 q 83 359 89 353 q 74 368 78 365 q 246 529 168 439 q 385 722 324 619 q 494 934 447 825 q 572 1153 542 1043 m 300 590 l 340 590 l 340 -90 l 300 -90 l 300 590 z "},"壇":{"ha":1389,"x_min":63,"x_max":1317,"o":"m 83 807 l 453 807 l 453 767 l 83 767 l 83 807 m 269 1140 l 311 1140 l 311 210 l 269 210 l 269 1140 m 63 150 q 252 220 142 178 q 479 307 363 263 l 486 268 q 270 183 376 225 q 78 108 164 140 l 63 150 m 432 1018 l 1303 1018 l 1303 978 l 432 978 l 432 1018 m 390 -17 l 1317 -17 l 1317 -57 l 390 -57 l 390 -17 m 725 739 l 725 649 l 1007 649 l 1007 739 l 725 739 m 683 781 l 1049 781 l 1049 607 l 683 607 l 683 781 m 542 857 l 542 532 l 1197 532 l 1197 857 l 542 857 m 501 897 l 1238 897 l 1238 492 l 501 492 l 501 897 m 588 222 l 588 113 l 1138 113 l 1138 222 l 588 222 m 588 371 l 588 263 l 1138 263 l 1138 371 l 588 371 m 546 411 l 1179 411 l 1179 71 l 546 71 l 546 411 m 774 1147 l 810 1163 q 857 1095 835 1132 q 889 1031 879 1058 l 850 1011 q 819 1078 840 1040 q 774 1147 797 1117 z "},"她":{"ha":1389,"x_min":61,"x_max":1322,"o":"m 533 608 l 1239 886 l 1254 853 l 549 575 l 533 608 m 950 1154 l 992 1154 l 992 224 l 950 224 l 950 1154 m 685 1024 l 726 1024 l 726 51 q 735 0 726 18 q 766 -26 743 -18 q 832 -33 789 -33 q 878 -33 844 -33 q 956 -33 913 -33 q 1045 -33 1000 -33 q 1127 -33 1090 -33 q 1182 -33 1164 -33 q 1242 -14 1222 -33 q 1269 56 1261 6 q 1281 197 1278 106 q 1301 185 1290 190 q 1322 178 1313 181 q 1306 26 1318 82 q 1265 -52 1294 -29 q 1176 -75 1236 -75 q 1134 -75 1168 -75 q 1053 -75 1100 -75 q 960 -75 1007 -75 q 880 -75 914 -75 q 838 -75 846 -75 q 746 -65 779 -75 q 699 -26 713 -54 q 685 53 685 1 l 685 1024 m 1226 865 l 1210 865 l 1240 896 l 1272 885 l 1269 874 q 1266 667 1269 778 q 1257 454 1263 557 q 1243 276 1251 351 l 1207 286 q 1218 460 1214 360 q 1224 668 1222 561 q 1226 865 1226 775 m 94 392 l 121 419 q 235 334 178 381 q 347 240 293 288 q 447 146 401 192 q 521 63 492 100 l 492 29 q 417 115 461 68 q 319 210 372 161 q 208 306 265 258 q 94 392 150 353 m 94 392 q 140 556 117 461 q 185 754 163 650 q 225 962 207 858 q 253 1153 243 1065 l 292 1150 q 263 956 281 1060 q 222 747 244 851 q 177 549 200 643 q 133 386 154 456 l 94 392 m 429 956 l 469 956 l 469 783 q 463 615 469 703 q 438 436 457 528 q 378 253 418 344 q 269 74 338 163 q 99 -96 201 -14 q 90 -87 96 -92 q 78 -78 83 -83 q 67 -71 72 -74 q 267 138 194 29 q 375 359 340 247 q 419 579 410 471 q 429 783 429 688 l 429 956 m 61 829 q 203 835 124 832 q 372 844 282 839 q 554 854 461 849 l 553 814 q 293 799 421 806 q 68 786 165 792 l 61 829 z "},"希":{"ha":1389,"x_min":64,"x_max":1301,"o":"m 88 688 l 1301 688 l 1301 647 l 88 647 l 88 688 m 1096 1154 l 1131 1133 q 935 1007 1044 1065 q 701 901 825 949 q 447 816 576 854 q 193 749 318 778 q 185 761 190 754 q 174 775 181 768 q 163 786 168 782 q 422 848 290 811 q 676 931 553 885 q 908 1034 800 978 q 1096 1154 1015 1090 m 728 600 l 768 600 l 768 -97 l 728 -97 l 728 600 m 335 442 l 1169 442 l 1169 400 l 376 400 l 376 -7 l 335 -7 l 335 442 m 1150 442 l 1192 442 l 1192 68 q 1183 32 1192 44 q 1151 13 1175 19 q 1078 6 1129 7 q 938 4 1026 4 q 931 24 936 14 q 921 43 926 33 q 1051 42 999 42 q 1122 43 1104 42 q 1144 49 1139 44 q 1150 68 1150 54 l 1150 442 m 247 1088 l 272 1117 q 513 1043 388 1085 q 759 956 638 1001 q 986 866 881 911 q 1169 781 1092 821 l 1142 744 q 962 831 1067 785 q 736 923 857 876 q 490 1012 615 969 q 247 1088 364 1054 m 592 863 l 633 850 q 507 599 585 721 q 325 375 429 478 q 92 197 221 272 q 83 208 88 203 q 73 220 78 214 q 64 231 68 226 q 294 403 190 303 q 473 621 397 503 q 592 863 549 739 z "},"幻":{"ha":1389,"x_min":89,"x_max":1271,"o":"m 661 1011 l 1239 1011 l 1239 971 l 661 971 l 661 1011 m 1229 1011 l 1271 1011 q 1271 1005 1271 1011 q 1271 991 1271 999 q 1271 979 1271 983 q 1253 542 1263 719 q 1233 251 1244 364 q 1206 78 1221 139 q 1168 -7 1190 18 q 1128 -37 1150 -29 q 1072 -46 1107 -44 q 976 -45 1038 -47 q 850 -37 915 -43 q 846 -16 849 -26 q 836 3 843 -6 q 979 -4 914 -3 q 1069 -6 1044 -6 q 1105 -3 1090 -7 q 1131 15 1119 1 q 1165 94 1150 35 q 1191 267 1179 154 q 1212 560 1203 381 q 1229 999 1221 740 l 1229 1011 m 526 371 l 563 383 q 629 247 597 319 q 686 108 661 175 q 724 -8 711 42 l 685 -24 q 649 94 674 26 q 592 235 624 163 q 526 371 561 308 m 104 532 q 100 546 103 538 q 94 563 97 554 q 89 578 92 572 q 125 609 106 581 q 169 681 144 638 q 208 748 182 701 q 267 859 235 794 q 333 997 300 924 q 390 1144 365 1071 l 432 1128 q 344 924 392 1026 q 246 730 297 822 q 142 563 194 638 l 142 561 q 136 558 142 561 q 123 551 131 556 q 110 542 115 547 q 104 532 104 538 m 104 532 l 104 569 l 139 588 l 522 613 q 521 592 521 603 q 521 575 521 582 q 308 557 388 564 q 187 546 228 550 q 129 538 146 542 q 104 532 113 535 m 117 22 q 113 36 115 28 q 107 52 110 44 q 100 65 104 60 q 151 107 119 71 q 222 196 182 143 q 288 284 244 224 q 388 427 332 344 q 500 606 443 510 q 606 797 557 701 l 647 779 q 490 513 572 644 q 323 265 408 382 q 153 51 238 147 l 153 50 q 147 48 153 50 q 135 42 142 46 q 122 33 128 38 q 117 22 117 28 m 117 22 l 117 60 l 150 83 l 642 174 q 642 153 642 164 q 644 135 643 142 q 415 90 507 108 q 267 61 324 72 q 181 43 211 50 q 138 31 151 36 q 117 22 124 26 z "},"形":{"ha":1389,"x_min":69,"x_max":1336,"o":"m 90 1064 l 790 1064 l 790 1022 l 90 1022 l 90 1064 m 69 603 l 811 603 l 811 563 l 69 563 l 69 603 m 603 1054 l 644 1054 l 644 -97 l 603 -97 l 603 1054 m 274 1054 l 315 1054 l 315 629 q 302 370 315 499 q 245 122 289 242 q 108 -103 201 3 q 99 -94 106 -99 q 87 -85 93 -89 q 75 -78 81 -81 q 207 141 165 25 q 261 381 249 257 q 274 628 274 504 l 274 1054 m 1207 1128 l 1246 1111 q 1128 994 1196 1053 q 987 883 1060 935 q 844 796 914 832 q 828 811 838 803 q 811 825 819 819 q 954 909 881 860 q 1094 1015 1028 958 q 1207 1128 1161 1072 m 1260 746 l 1297 729 q 1169 601 1243 665 q 1013 481 1094 536 q 853 386 931 425 q 838 402 847 393 q 821 417 829 411 q 980 508 899 454 q 1135 623 1061 561 q 1260 746 1208 685 m 1299 364 l 1336 347 q 1190 172 1278 257 q 998 18 1103 88 q 781 -99 893 -51 q 766 -82 775 -92 q 749 -67 757 -72 q 966 45 861 -22 q 1157 194 1071 113 q 1299 364 1243 276 z "},"影":{"ha":1389,"x_min":93,"x_max":1329,"o":"m 1203 1122 l 1240 1106 q 1133 988 1194 1047 q 1004 876 1071 928 q 874 786 938 824 q 859 801 868 793 q 840 814 850 808 q 972 901 904 850 q 1099 1009 1039 951 q 1203 1122 1160 1067 m 1260 749 l 1297 732 q 1176 605 1247 668 q 1025 488 1104 542 q 869 394 946 433 q 856 410 864 401 q 839 425 847 419 q 994 515 915 463 q 1142 627 1072 567 q 1260 749 1211 688 m 1292 335 l 1329 318 q 1192 158 1274 236 q 1013 16 1110 81 q 815 -92 917 -49 q 801 -76 810 -85 q 786 -62 793 -68 q 983 43 888 -19 q 1159 181 1079 106 q 1292 335 1239 256 m 100 633 l 804 633 l 804 592 l 100 592 l 100 633 m 217 456 l 217 296 l 704 296 l 704 456 l 217 456 m 176 497 l 744 497 l 744 254 l 176 254 l 176 497 m 600 182 l 633 200 q 713 104 674 157 q 774 15 753 51 l 740 -8 q 680 84 719 31 q 600 182 640 138 m 215 907 l 215 789 l 715 789 l 715 907 l 215 907 m 215 1064 l 215 947 l 715 947 l 715 1064 l 215 1064 m 175 1104 l 756 1104 l 756 747 l 175 747 l 175 1104 m 440 271 l 481 271 l 481 -25 q 474 -58 481 -47 q 450 -76 468 -69 q 395 -83 432 -82 q 297 -85 358 -85 q 291 -65 296 -75 q 279 -44 286 -54 q 371 -46 335 -46 q 419 -44 407 -46 q 437 -40 433 -44 q 440 -26 440 -36 l 440 271 m 240 196 l 281 186 q 213 68 254 126 q 128 -31 172 10 q 119 -23 125 -28 q 106 -13 113 -18 q 93 -6 99 -8 q 177 87 139 35 q 240 196 215 139 m 392 719 l 428 732 q 464 675 446 708 q 492 617 482 642 l 456 601 q 428 659 446 625 q 392 719 410 693 z "},"恆":{"ha":1389,"x_min":49,"x_max":1321,"o":"m 457 1057 l 1304 1057 l 1304 1015 l 457 1015 l 457 1057 m 394 -10 l 1321 -10 l 1321 -50 l 394 -50 l 394 -10 m 722 1040 l 763 1035 q 720 817 744 935 q 669 579 696 699 q 619 352 643 460 q 574 165 594 244 l 529 169 q 577 358 551 250 q 629 587 603 467 q 680 825 656 707 q 722 1040 704 943 m 686 781 l 1140 781 l 1140 739 l 678 739 l 686 781 m 647 608 l 676 639 q 809 577 740 613 q 939 505 878 542 q 1039 435 1000 468 l 1008 400 q 909 470 969 432 q 781 544 849 508 q 647 608 713 581 m 593 379 l 624 407 q 756 338 688 376 q 883 258 824 299 q 982 185 943 218 l 950 151 q 853 226 913 185 q 726 308 793 267 q 593 379 658 349 m 1128 781 l 1167 781 q 1142 576 1156 686 q 1112 353 1128 465 q 1081 141 1096 240 q 1053 -32 1065 42 l 1014 -32 q 1044 144 1028 43 q 1075 357 1060 244 q 1104 579 1090 469 q 1128 781 1118 689 m 256 1154 l 297 1154 l 297 -94 l 256 -94 l 256 1154 m 126 893 l 167 886 q 156 760 165 828 q 130 631 147 693 q 85 524 113 568 l 49 542 q 92 643 75 583 q 117 768 108 703 q 126 893 125 833 m 347 921 l 383 935 q 423 848 404 894 q 456 758 442 801 q 478 683 471 715 l 440 661 q 419 740 433 694 q 386 832 404 785 q 347 921 368 879 z "},"愛":{"ha":1389,"x_min":89,"x_max":1299,"o":"m 119 828 l 1268 828 l 1268 599 l 1226 599 l 1226 788 l 161 788 l 161 599 l 119 599 l 119 828 m 1161 1153 l 1190 1118 q 981 1085 1101 1100 q 725 1059 861 1071 q 450 1040 589 1047 q 183 1028 311 1032 q 178 1047 182 1036 q 172 1067 175 1058 q 438 1078 299 1071 q 711 1097 576 1086 q 963 1122 846 1108 q 1161 1153 1079 1136 m 292 1004 l 328 1019 q 393 934 364 982 q 435 850 422 886 l 396 832 q 355 917 385 868 q 292 1004 325 965 m 597 1029 l 636 1042 q 692 951 667 1001 q 725 863 717 900 l 683 849 q 652 937 676 886 q 597 1029 628 988 m 994 669 l 1026 690 q 1108 619 1067 658 q 1186 542 1150 581 q 1243 474 1222 504 l 1210 450 q 1153 519 1189 481 q 1076 598 1117 558 q 994 669 1035 638 m 569 732 l 596 761 q 714 702 653 736 q 810 640 775 668 l 785 607 q 688 672 749 636 q 569 732 626 707 m 1090 1044 l 1128 1021 q 1046 906 1092 965 q 961 801 1000 846 l 932 821 q 987 890 957 850 q 1044 971 1017 929 q 1090 1044 1072 1013 m 1047 325 l 1060 325 l 1069 328 l 1096 307 q 921 146 1026 214 q 685 30 815 78 q 411 -49 556 -18 q 119 -100 267 -81 q 115 -87 118 -94 q 107 -74 111 -81 q 99 -62 103 -67 q 385 -17 243 -46 q 653 59 526 13 q 882 169 781 106 q 1047 318 983 233 l 1047 325 m 253 386 q 506 169 346 260 q 869 22 665 78 q 1299 -54 1072 -33 q 1290 -67 1294 -60 q 1281 -80 1285 -74 q 1274 -93 1276 -86 q 947 -38 1106 -75 q 650 56 789 -1 q 401 190 511 113 q 218 367 290 267 l 253 386 m 532 444 l 572 429 q 441 298 515 361 q 285 182 367 235 q 124 89 204 129 q 115 99 121 93 q 101 110 108 104 q 89 118 94 115 q 254 208 172 157 q 408 319 336 258 q 532 444 481 379 m 463 686 l 504 686 l 504 517 q 519 491 504 497 q 585 485 533 485 q 632 485 597 485 q 710 485 667 485 q 792 485 754 485 q 847 485 831 485 q 887 492 874 485 q 906 524 900 499 q 913 603 911 550 q 931 594 921 597 q 951 588 942 590 q 940 498 949 529 q 912 456 932 467 q 853 444 892 444 q 819 444 846 444 q 756 444 792 444 q 683 444 719 444 q 619 444 646 444 q 588 444 593 444 q 511 449 539 444 q 473 470 483 454 q 463 517 463 486 l 463 686 m 318 681 l 354 668 q 294 534 333 600 q 185 429 254 468 l 153 456 q 258 553 218 492 q 318 681 299 614 m 442 325 l 1061 325 l 1061 285 l 400 285 l 442 325 z "},"慾":{"ha":1389,"x_min":47,"x_max":1328,"o":"m 475 1132 l 507 1153 q 608 1070 557 1118 q 683 985 658 1022 l 651 958 q 575 1046 625 997 q 475 1132 525 1094 m 226 689 l 615 689 l 615 394 l 226 394 l 226 436 l 575 436 l 575 649 l 226 649 l 226 689 m 817 992 l 1247 992 l 1247 950 l 817 950 l 817 992 m 207 689 l 249 689 l 249 321 l 207 321 l 207 689 m 858 1150 l 899 1142 q 819 931 868 1032 q 713 758 771 831 q 703 767 710 763 q 689 777 696 772 q 676 785 682 782 q 783 950 736 854 q 858 1150 829 1046 m 290 1143 l 331 1133 q 229 1003 290 1065 q 107 899 168 942 q 97 908 104 903 q 83 917 90 913 q 71 925 76 922 q 194 1024 136 967 q 290 1143 253 1081 m 1236 992 l 1244 992 l 1254 994 l 1279 983 q 1238 858 1261 922 q 1194 750 1215 793 l 1158 763 q 1200 865 1179 804 q 1236 981 1221 925 l 1236 992 m 385 1018 l 421 1004 q 329 851 383 928 q 211 708 275 774 q 79 594 147 642 q 64 608 74 601 q 47 621 54 615 q 179 731 115 667 q 297 870 243 796 q 385 1018 350 944 m 353 935 l 385 958 q 507 865 444 917 q 623 763 569 814 q 710 669 676 711 l 676 644 q 591 738 644 686 q 476 841 538 789 q 353 935 414 893 m 976 900 l 1017 896 q 933 544 1003 686 q 724 326 864 403 q 716 335 721 331 q 706 346 711 340 q 694 354 700 351 q 897 560 831 429 q 976 900 964 690 m 378 261 l 418 261 l 418 11 q 439 -23 418 -14 q 535 -32 460 -32 q 586 -32 549 -32 q 672 -32 624 -32 q 769 -32 719 -32 q 860 -32 819 -32 q 919 -32 900 -32 q 981 -21 961 -32 q 1010 27 1001 -10 q 1021 140 1018 64 q 1035 132 1028 136 q 1051 125 1043 128 q 1064 121 1058 122 q 1048 -1 1060 42 q 1007 -59 1036 -43 q 921 -75 978 -75 q 873 -75 911 -75 q 782 -75 835 -75 q 677 -75 729 -75 q 587 -75 625 -75 q 540 -75 549 -75 q 442 -69 478 -75 q 392 -44 407 -62 q 378 13 378 -26 l 378 261 m 578 304 l 610 324 q 691 252 650 292 q 767 174 732 213 q 824 106 803 136 l 790 81 q 734 151 769 111 q 658 231 699 190 q 578 304 618 271 m 1076 246 l 1114 261 q 1174 185 1144 226 q 1228 105 1204 144 q 1265 33 1253 65 l 1226 14 q 1190 86 1214 46 q 1137 169 1167 126 q 1076 246 1107 211 m 236 228 l 271 211 q 228 126 251 172 q 177 33 204 79 q 121 -50 150 -14 l 83 -32 q 142 49 114 3 q 194 143 169 96 q 236 228 218 190 m 953 703 l 986 724 q 1117 606 1051 671 q 1238 479 1182 542 q 1328 367 1294 417 l 1292 342 q 1204 456 1260 392 q 1083 584 1149 519 q 953 703 1017 649 z "},"我":{"ha":1389,"x_min":71,"x_max":1322,"o":"m 976 1094 l 1010 1118 q 1099 1038 1053 1082 q 1185 951 1144 993 q 1250 876 1225 908 l 1214 849 q 1151 925 1190 882 q 1066 1013 1111 968 q 976 1094 1021 1057 m 86 726 l 1306 726 l 1306 686 l 86 686 l 86 726 m 71 304 q 260 349 151 322 q 492 405 369 375 q 738 465 615 435 l 742 429 q 509 369 626 400 q 284 312 392 339 q 90 263 176 285 l 71 304 m 418 1042 l 458 1042 l 458 -24 q 447 -73 458 -58 q 411 -93 436 -87 q 335 -100 388 -99 q 196 -100 283 -101 q 192 -87 194 -94 q 185 -72 189 -81 q 179 -58 182 -64 q 310 -60 253 -60 q 386 -58 368 -60 q 411 -50 404 -57 q 418 -25 418 -43 l 418 1042 m 661 1129 l 696 1096 q 529 1043 625 1068 q 328 997 433 1018 q 125 958 224 975 q 119 975 124 965 q 110 993 115 985 q 311 1032 207 1010 q 508 1079 415 1054 q 661 1129 600 1104 m 803 1142 l 846 1142 q 865 743 847 928 q 914 410 882 558 q 990 157 946 263 q 1090 -4 1035 51 q 1208 -60 1144 -60 q 1260 2 1244 -60 q 1282 208 1276 64 q 1301 197 1289 203 q 1322 189 1313 192 q 1305 18 1317 82 q 1270 -74 1293 -46 q 1206 -101 1247 -101 q 1088 -58 1142 -101 q 989 65 1033 -15 q 911 258 944 146 q 854 508 878 369 q 818 807 831 647 q 803 1142 806 967 m 1179 604 l 1217 589 q 1058 346 1153 464 q 845 129 963 228 q 597 -37 728 31 q 583 -22 592 -31 q 565 -7 574 -12 q 811 156 694 58 q 1022 369 928 253 q 1179 604 1117 485 z "},"撕":{"ha":1389,"x_min":71,"x_max":1324,"o":"m 399 958 l 886 958 l 886 918 l 399 918 l 399 958 m 494 1146 l 533 1146 l 533 251 l 494 251 l 494 1146 m 765 1146 l 804 1146 l 804 251 l 765 251 l 765 1146 m 514 735 l 779 735 l 779 694 l 514 694 l 514 735 m 538 200 l 578 190 q 503 33 547 110 q 410 -100 458 -44 q 394 -87 404 -94 q 376 -75 385 -81 q 469 51 428 -22 q 538 200 511 124 m 690 183 l 726 200 q 785 113 756 161 q 828 31 814 65 l 794 10 q 751 95 781 46 q 690 183 721 144 m 1242 1153 l 1279 1124 q 1130 1049 1218 1085 q 958 988 1042 1014 q 952 1003 957 994 q 942 1019 947 1011 q 1053 1060 997 1038 q 1160 1106 1110 1082 q 1242 1153 1210 1131 m 961 708 l 1324 708 l 1324 667 l 961 667 l 961 708 m 378 282 l 900 282 l 900 242 l 378 242 l 378 282 m 1157 693 l 1199 693 l 1199 -97 l 1157 -97 l 1157 693 m 514 511 l 779 511 l 779 469 l 514 469 l 514 511 m 942 1019 l 982 1019 l 982 567 q 978 408 982 493 q 960 236 974 324 q 923 65 947 149 q 857 -92 899 -19 q 848 -83 854 -87 q 836 -73 842 -78 q 825 -65 831 -68 q 904 138 879 28 q 935 359 929 247 q 942 567 942 471 l 942 1019 m 71 390 q 223 456 135 417 q 404 538 311 496 l 413 497 q 243 419 328 458 q 89 350 158 381 l 71 390 m 79 857 l 404 857 l 404 815 l 79 815 l 79 857 m 240 1153 l 276 1153 l 276 -22 q 269 -60 276 -49 q 246 -79 261 -72 q 197 -86 228 -85 q 114 -87 167 -87 q 108 -67 113 -79 q 99 -46 104 -56 q 175 -47 143 -47 q 218 -46 207 -47 q 235 -42 229 -46 q 240 -24 240 -37 l 240 1153 z "},"是":{"ha":1389,"x_min":67,"x_max":1324,"o":"m 82 522 l 1308 522 l 1308 482 l 82 482 l 82 522 m 694 276 l 1215 276 l 1215 236 l 694 236 l 694 276 m 682 514 l 724 514 l 724 -25 l 682 -25 l 682 514 m 351 285 q 478 92 399 158 q 672 1 557 25 q 938 -24 786 -24 q 983 -24 946 -24 q 1073 -24 1021 -24 q 1177 -24 1125 -24 q 1269 -24 1229 -24 q 1324 -24 1310 -24 q 1315 -37 1319 -29 q 1308 -52 1311 -44 q 1304 -65 1306 -60 l 1221 -65 l 939 -65 q 716 -51 814 -65 q 542 -1 618 -37 q 411 99 467 35 q 317 265 356 164 l 351 285 m 353 421 l 394 415 q 288 113 363 240 q 100 -99 214 -15 q 92 -89 97 -94 q 79 -78 86 -83 q 67 -69 72 -72 q 252 132 182 8 q 353 421 322 256 m 285 850 l 285 692 l 1094 692 l 1094 850 l 285 850 m 285 1046 l 285 890 l 1094 890 l 1094 1046 l 285 1046 m 244 1086 l 1136 1086 l 1136 651 l 244 651 l 244 1086 z "},"時":{"ha":1389,"x_min":122,"x_max":1315,"o":"m 585 699 l 1265 699 l 1265 658 l 585 658 l 585 699 m 506 968 l 1315 968 l 1315 928 l 506 928 l 506 968 m 515 460 l 1313 460 l 1313 419 l 515 419 l 515 460 m 890 1154 l 932 1154 l 932 676 l 890 676 l 890 1154 m 1081 678 l 1122 678 l 1122 -26 q 1112 -69 1122 -56 q 1078 -89 1101 -83 q 1003 -95 1054 -94 q 861 -96 951 -96 q 855 -77 860 -89 q 843 -56 850 -65 q 976 -58 921 -57 q 1050 -57 1032 -58 q 1074 -49 1068 -56 q 1081 -26 1081 -43 l 1081 678 m 629 318 l 663 340 q 740 258 701 303 q 810 169 778 213 q 858 90 842 125 l 822 64 q 774 144 806 100 q 706 235 743 189 q 629 318 668 281 m 144 1057 l 481 1057 l 481 181 l 144 181 l 144 221 l 440 221 l 440 1015 l 144 1015 l 144 1057 m 144 643 l 457 643 l 457 601 l 144 601 l 144 643 m 122 1057 l 164 1057 l 164 76 l 122 76 l 122 1057 z "},"月":{"ha":1389,"x_min":51,"x_max":1113,"o":"m 331 1072 l 1085 1072 l 1085 1032 l 331 1032 l 331 1072 m 329 735 l 1090 735 l 1090 694 l 329 694 l 329 735 m 314 393 l 1086 393 l 1086 353 l 314 353 l 314 393 m 315 1072 l 356 1072 l 356 675 q 347 484 356 585 q 310 280 338 383 q 227 79 282 176 q 81 -100 172 -18 q 73 -89 78 -94 q 63 -78 68 -83 q 51 -69 57 -72 q 193 104 140 11 q 272 295 246 197 q 307 490 299 393 q 315 675 315 588 l 315 1072 m 1071 1072 l 1113 1072 l 1113 -1 q 1099 -56 1113 -39 q 1056 -81 1086 -74 q 957 -87 1025 -86 q 774 -89 889 -89 q 769 -74 772 -82 q 762 -59 765 -67 q 754 -44 758 -51 q 877 -46 821 -46 q 973 -45 933 -46 q 1028 -44 1013 -44 q 1062 -34 1053 -43 q 1071 -1 1071 -25 l 1071 1072 z "},"望":{"ha":1389,"x_min":76,"x_max":1319,"o":"m 76 994 l 703 994 l 703 953 l 76 953 l 76 994 m 178 208 l 1219 208 l 1219 168 l 178 168 l 178 208 m 83 -17 l 1310 -17 l 1310 -57 l 83 -57 l 83 -17 m 674 401 l 715 401 l 715 -33 l 674 -33 l 674 401 m 346 1140 l 385 1153 q 426 1060 406 1110 q 457 976 447 1011 l 418 961 q 387 1047 407 997 q 346 1140 367 1097 m 222 976 l 263 976 l 263 646 q 272 599 263 611 q 313 588 282 588 q 361 588 325 588 q 441 588 397 588 q 522 588 485 588 q 572 588 558 588 q 618 589 590 588 q 661 592 646 590 q 665 571 663 583 q 668 551 667 558 q 630 547 657 549 q 574 546 603 546 q 521 546 560 546 q 437 546 482 546 q 356 546 392 546 q 314 546 321 546 q 259 556 279 546 q 231 588 239 565 q 222 647 222 610 l 222 976 m 1157 475 l 1193 442 q 988 407 1106 422 q 736 381 869 392 q 465 363 603 369 q 201 351 328 356 q 197 371 200 360 q 190 388 193 382 q 451 399 315 392 q 719 418 588 407 q 965 444 851 429 q 1157 475 1078 458 m 819 967 l 844 990 q 967 919 903 958 q 1089 843 1031 881 q 1186 778 1147 806 l 1163 749 q 1065 815 1124 776 q 942 893 1007 853 q 819 967 878 933 m 719 863 l 747 878 q 840 784 792 835 q 931 686 888 733 q 1001 604 974 639 l 971 583 q 902 667 944 618 q 812 767 860 715 q 719 863 764 818 m 918 1156 l 964 1149 q 847 970 919 1064 q 671 797 774 876 q 656 812 665 804 q 639 824 647 819 q 808 988 738 897 q 918 1156 879 1079 m 1278 1061 l 1288 1061 l 1296 1064 l 1319 1053 q 1202 760 1285 875 q 1003 581 1119 646 q 751 483 888 515 q 742 501 749 490 q 729 519 736 513 q 972 608 860 547 q 1165 777 1085 669 q 1278 1051 1246 885 l 1278 1061 m 899 1061 l 1292 1061 l 1292 1019 l 863 1019 l 899 1061 z "},"枯":{"ha":1389,"x_min":53,"x_max":1317,"o":"m 83 876 l 507 876 l 507 836 l 83 836 l 83 876 m 306 1154 l 346 1154 l 346 -94 l 306 -94 l 306 1154 m 303 865 l 339 856 q 293 683 321 772 q 231 506 265 593 q 160 345 197 419 q 85 219 122 271 q 76 231 82 225 q 65 243 71 238 q 53 251 58 249 q 127 371 90 300 q 198 525 164 442 q 259 696 232 608 q 303 865 286 783 m 339 775 q 374 724 350 760 q 426 645 399 688 q 478 567 454 603 q 511 514 501 531 l 479 478 q 447 539 469 500 q 398 622 424 578 q 349 701 372 665 q 314 754 326 738 l 339 775 m 589 460 l 1225 460 l 1225 -92 l 1185 -92 l 1185 419 l 629 419 l 629 -97 l 589 -97 l 589 460 m 881 1153 l 922 1153 l 922 436 l 881 436 l 881 1153 m 538 828 l 1317 828 l 1317 788 l 538 788 l 538 828 m 603 4 l 1206 4 l 1206 -36 l 603 -36 l 603 4 z "},"棘":{"ha":1389,"x_min":53,"x_max":1332,"o":"m 357 1151 l 397 1151 l 397 -97 l 357 -97 l 357 1151 m 971 1151 l 1011 1151 l 1011 -97 l 971 -97 l 971 1151 m 83 974 l 642 974 l 642 932 l 83 932 l 83 974 m 119 765 l 621 765 l 621 725 l 161 725 l 161 385 l 119 385 l 119 765 m 599 765 l 640 765 l 640 458 q 635 430 640 440 q 614 413 629 419 q 569 405 599 406 q 494 404 539 404 q 488 424 493 413 q 476 444 482 435 q 546 443 518 443 q 583 443 574 443 q 599 458 599 444 l 599 765 m 697 974 l 1299 974 l 1299 932 l 697 932 l 697 974 m 732 765 l 1239 765 l 1239 725 l 774 725 l 774 385 l 732 385 l 732 765 m 1221 765 l 1263 765 l 1263 454 q 1257 424 1263 435 q 1235 406 1251 413 q 1188 399 1218 400 q 1111 397 1158 397 q 1104 417 1110 407 q 1093 438 1099 428 q 1166 436 1138 436 q 1206 438 1194 436 q 1221 454 1221 439 l 1221 765 m 1001 526 q 1053 402 1021 469 q 1127 267 1085 335 q 1222 137 1169 199 q 1332 31 1274 75 q 1322 22 1328 28 q 1312 9 1317 15 q 1303 -1 1307 3 q 1194 110 1244 47 q 1101 240 1143 172 q 1028 374 1060 308 q 976 490 996 439 l 1001 526 m 361 515 l 397 503 q 315 306 365 406 q 204 121 264 206 q 82 -18 144 36 q 68 1 76 -10 q 53 17 60 11 q 173 147 114 67 q 282 324 232 228 q 361 515 332 419 m 389 388 q 446 344 408 375 q 526 276 483 313 q 606 209 569 240 q 660 164 643 178 l 635 128 q 581 180 617 147 q 502 249 544 213 q 423 317 460 286 q 365 364 386 349 l 389 388 m 975 515 l 1007 503 q 903 289 968 390 q 757 108 838 188 q 588 -19 676 28 q 578 -8 583 -14 q 567 3 572 -3 q 557 13 563 8 q 727 133 646 56 q 872 308 808 210 q 975 515 936 407 z "},"楚":{"ha":1389,"x_min":74,"x_max":1322,"o":"m 110 544 l 1243 544 l 1243 504 l 110 504 l 110 544 m 694 275 l 1149 275 l 1149 235 l 694 235 l 694 275 m 1232 544 l 1242 544 l 1250 547 l 1276 535 q 1219 425 1250 481 q 1160 332 1189 369 l 1125 346 q 1182 433 1153 382 q 1232 535 1211 485 l 1232 544 m 367 292 q 475 84 406 156 q 650 -13 544 13 q 903 -39 756 -39 q 952 -39 911 -39 q 1050 -39 993 -39 q 1165 -39 1107 -39 q 1266 -39 1222 -39 q 1322 -39 1310 -39 q 1314 -52 1318 -44 q 1307 -67 1310 -60 q 1303 -82 1304 -75 l 1215 -82 l 904 -82 q 691 -67 783 -82 q 530 -12 599 -51 q 413 96 461 26 q 332 275 365 165 l 367 292 m 356 418 l 397 418 q 351 221 383 321 q 261 35 319 121 q 106 -106 203 -50 q 97 -95 103 -100 q 85 -85 90 -90 q 74 -78 79 -81 q 225 56 168 -26 q 313 235 282 139 q 356 418 343 331 m 671 531 l 713 531 l 713 -51 l 671 -40 l 671 531 m 113 1013 l 621 1013 l 621 972 l 113 972 l 113 1013 m 372 1153 l 413 1153 l 413 601 l 372 601 l 372 1153 m 700 1013 l 1271 1013 l 1271 972 l 700 972 l 700 1013 m 957 1153 l 999 1153 l 999 607 l 957 607 l 957 1153 m 408 965 q 451 930 422 954 q 514 877 481 906 q 575 824 547 849 q 614 789 603 800 l 585 757 q 545 798 572 772 q 487 853 518 824 q 428 906 456 882 q 383 943 400 931 l 408 965 m 361 993 l 393 978 q 315 856 363 917 q 212 745 267 796 q 104 661 157 694 q 90 678 99 669 q 74 693 81 688 q 183 769 128 721 q 284 875 238 817 q 361 993 331 933 m 943 993 l 976 978 q 898 856 946 917 q 795 745 850 796 q 686 661 740 694 q 672 678 681 669 q 657 693 664 688 q 765 769 711 721 q 866 875 819 817 q 943 993 913 933 m 996 976 q 1042 934 1011 963 q 1110 870 1072 906 q 1184 799 1147 835 q 1250 735 1221 764 q 1293 693 1279 707 l 1264 661 q 1206 724 1246 683 q 1120 811 1167 765 q 1033 896 1074 857 q 969 953 992 935 l 996 976 z "},"水":{"ha":1389,"x_min":78,"x_max":1343,"o":"m 117 782 l 524 782 l 524 740 l 117 740 l 117 782 m 672 1149 l 715 1149 l 715 -25 q 705 -72 715 -57 q 672 -92 694 -86 q 608 -99 651 -97 q 489 -100 564 -100 q 484 -87 488 -94 q 478 -71 481 -79 q 471 -57 475 -62 q 581 -58 533 -58 q 643 -57 629 -58 q 665 -50 658 -56 q 672 -26 672 -44 l 672 1149 m 514 782 l 524 782 l 532 785 l 558 772 q 454 459 522 597 q 299 219 386 321 q 111 51 211 118 q 102 63 108 57 q 90 76 96 69 q 78 85 83 82 q 265 245 178 147 q 416 475 351 343 q 514 769 481 607 l 514 782 m 711 825 q 829 605 760 715 q 982 397 899 494 q 1158 221 1065 299 q 1343 97 1250 143 q 1333 87 1339 93 q 1322 74 1328 81 q 1313 63 1317 68 q 1127 192 1219 113 q 951 373 1035 272 q 799 586 868 474 q 679 813 729 699 l 711 825 m 1157 874 l 1193 849 q 1096 731 1150 793 q 986 610 1042 668 q 882 508 931 551 l 856 529 q 958 634 903 574 q 1067 758 1014 694 q 1157 874 1119 821 z "},"永":{"ha":1389,"x_min":60,"x_max":1322,"o":"m 85 599 l 503 599 l 503 558 l 85 558 l 85 599 m 253 863 l 696 863 l 696 822 l 253 822 l 253 863 m 711 797 q 844 467 760 618 q 1049 204 929 315 q 1322 36 1169 93 q 1313 26 1318 32 q 1302 15 1307 21 q 1293 3 1297 8 q 1019 178 1140 65 q 813 447 899 292 q 675 789 726 603 l 711 797 m 1235 774 l 1272 750 q 1144 631 1215 693 q 1001 510 1074 568 q 863 407 928 451 l 833 429 q 971 533 897 474 q 1115 656 1044 593 q 1235 774 1185 719 m 674 863 l 715 863 l 715 -22 q 706 -67 715 -53 q 672 -87 696 -81 q 598 -94 649 -93 q 461 -94 547 -94 q 455 -75 460 -87 q 444 -53 450 -62 q 534 -55 493 -54 q 603 -55 575 -56 q 643 -54 632 -54 q 667 -47 661 -53 q 674 -22 674 -40 l 674 863 m 399 1119 l 418 1153 q 558 1115 485 1136 q 701 1068 631 1093 q 832 1017 771 1043 q 936 967 893 990 l 919 926 q 814 976 875 950 q 683 1029 753 1003 q 540 1078 613 1056 q 399 1119 467 1101 m 486 599 l 496 599 l 506 601 l 531 589 q 424 335 492 449 q 270 136 356 222 q 92 -7 185 50 q 83 4 88 -1 q 72 16 78 10 q 60 26 65 22 q 237 161 153 79 q 386 351 321 243 q 486 588 451 458 l 486 599 z "},"沉":{"ha":1389,"x_min":68,"x_max":1319,"o":"m 136 1108 l 160 1139 q 259 1094 208 1121 q 354 1041 310 1068 q 426 989 399 1014 l 401 951 q 330 1006 374 978 q 235 1062 286 1035 q 136 1108 185 1089 m 68 728 l 90 761 q 191 724 139 746 q 290 680 243 703 q 365 635 336 657 l 344 596 q 268 642 314 618 q 170 690 222 667 q 68 728 118 713 m 113 -49 q 199 89 151 8 q 297 258 247 169 q 385 428 346 347 l 415 401 q 331 238 378 325 q 236 69 283 151 q 147 -78 189 -14 l 113 -49 m 492 1065 l 1292 1065 l 1292 813 l 1251 813 l 1251 1024 l 532 1024 l 532 813 l 492 813 l 492 1065 m 700 788 l 740 788 l 740 572 q 730 408 740 496 q 691 232 719 321 q 608 58 663 143 q 465 -100 553 -26 q 458 -89 463 -94 q 448 -78 453 -83 q 438 -69 443 -72 q 574 82 522 1 q 653 248 626 163 q 690 416 681 333 q 700 574 700 499 l 700 788 m 1010 788 l 1051 788 l 1051 17 q 1060 -21 1051 -12 q 1097 -29 1068 -29 q 1134 -29 1107 -29 q 1190 -29 1161 -29 q 1229 -29 1218 -29 q 1260 -10 1250 -29 q 1273 62 1269 8 q 1278 219 1276 115 q 1292 211 1285 215 q 1306 204 1299 207 q 1319 199 1314 201 q 1311 34 1318 93 q 1286 -48 1304 -25 q 1231 -71 1268 -71 q 1193 -71 1222 -71 q 1134 -71 1164 -71 q 1096 -71 1104 -71 q 1044 -64 1063 -71 q 1017 -38 1025 -57 q 1010 17 1010 -19 l 1010 788 z "},"無":{"ha":1389,"x_min":79,"x_max":1303,"o":"m 383 1154 l 422 1143 q 335 996 385 1068 q 228 861 285 924 q 114 749 172 799 q 105 758 111 753 q 92 769 99 764 q 79 778 85 775 q 249 946 168 847 q 383 1154 331 1044 m 297 981 l 1254 981 l 1254 939 l 268 939 l 297 981 m 136 647 l 1276 647 l 1276 606 l 136 606 l 136 647 m 83 310 l 1303 310 l 1303 268 l 83 268 l 83 310 m 556 831 l 596 831 l 596 292 l 556 292 l 556 831 m 321 831 l 361 831 l 361 285 l 321 285 l 321 831 m 811 831 l 853 831 l 853 285 l 811 285 l 811 831 m 1057 831 l 1097 831 l 1097 285 l 1057 285 l 1057 831 m 499 160 l 536 161 q 559 33 550 101 q 569 -79 568 -35 l 529 -85 q 525 -11 529 -53 q 515 76 521 31 q 499 160 508 121 m 789 163 l 826 171 q 867 87 847 132 q 901 -1 886 42 q 924 -75 917 -43 l 885 -86 q 846 33 872 -37 q 789 163 819 103 m 1079 174 l 1118 182 q 1168 94 1143 142 q 1215 2 1193 47 q 1251 -75 1238 -43 l 1211 -90 q 1176 -11 1199 -57 q 1129 83 1154 35 q 1079 174 1104 132 m 267 182 l 303 174 q 267 83 288 132 q 223 -11 246 35 q 175 -93 200 -57 l 139 -81 q 188 -1 164 -46 q 232 91 211 43 q 267 182 253 139 z "},"然":{"ha":1389,"x_min":74,"x_max":1322,"o":"m 678 836 l 1304 836 l 1304 794 l 678 794 l 678 836 m 285 908 l 314 931 q 402 853 357 896 q 486 768 447 810 q 549 693 525 726 l 519 665 q 457 742 496 699 q 374 828 418 785 q 285 908 329 872 m 1061 1086 l 1092 1108 q 1189 1014 1140 1067 q 1264 921 1238 961 l 1231 894 q 1158 989 1206 935 q 1061 1086 1110 1043 m 381 1161 l 421 1150 q 344 974 390 1064 q 240 800 299 883 q 110 651 181 717 q 101 660 107 656 q 90 668 96 664 q 81 675 85 672 q 207 819 149 738 q 310 990 265 901 q 381 1161 354 1079 m 636 1021 l 646 1021 l 656 1024 l 678 1011 q 551 670 635 815 q 357 425 468 525 q 118 264 246 325 q 112 275 117 269 q 101 287 107 281 q 90 296 96 293 q 326 451 217 354 q 516 686 435 547 q 636 1010 597 825 l 636 1021 m 346 1021 l 654 1021 l 654 981 l 329 981 l 346 1021 m 951 1140 l 993 1140 l 993 1019 q 981 839 993 936 q 931 639 969 742 q 813 436 892 536 q 599 247 733 336 q 585 261 594 253 q 567 275 575 269 q 777 459 700 361 q 892 656 854 557 q 940 849 929 756 q 951 1018 951 942 l 951 1140 m 504 160 l 542 161 q 565 33 556 101 q 575 -79 574 -35 l 535 -85 q 531 -11 535 -53 q 520 76 526 31 q 504 160 514 121 m 794 163 l 832 171 q 872 87 853 132 q 907 -1 892 42 q 929 -75 922 -43 l 890 -86 q 851 33 878 -37 q 794 163 825 103 m 1085 174 l 1121 189 q 1198 99 1160 149 q 1269 3 1236 50 q 1321 -81 1301 -44 l 1283 -99 q 1233 -15 1265 -62 q 1162 83 1200 33 q 1085 174 1124 132 m 268 182 l 303 172 q 213 31 264 104 q 110 -94 163 -43 l 74 -79 q 145 -3 110 -46 q 213 88 181 40 q 268 182 244 136 m 86 558 q 223 590 146 571 q 385 629 300 608 l 389 596 q 241 557 313 576 q 107 522 169 538 l 86 558 m 940 794 l 975 814 q 1078 676 1026 750 q 1176 529 1129 603 q 1261 389 1224 456 q 1322 269 1299 322 l 1285 247 q 1224 367 1261 300 q 1140 509 1186 435 q 1042 657 1093 583 q 940 794 990 731 z "},"狀":{"ha":1389,"x_min":76,"x_max":1326,"o":"m 524 721 l 1314 721 l 1314 679 l 524 679 l 524 721 m 1017 1079 l 1050 1100 q 1134 1018 1092 1063 q 1212 931 1176 974 q 1268 854 1247 889 l 1233 829 q 1177 908 1213 864 q 1100 997 1142 951 q 1017 1079 1058 1042 m 160 732 l 449 732 l 449 692 l 160 692 l 160 732 m 79 447 l 454 447 l 454 406 l 79 406 l 79 447 m 433 1154 l 474 1154 l 474 -94 l 433 -94 l 433 1154 m 139 1096 l 181 1096 l 181 692 l 139 692 l 139 1096 m 210 436 l 251 436 l 251 347 q 246 249 251 301 q 225 142 240 197 q 183 34 210 88 q 113 -67 156 -19 q 101 -58 108 -62 q 88 -50 94 -54 q 76 -43 82 -46 q 162 88 133 18 q 200 225 190 157 q 210 347 210 293 l 210 436 m 865 1154 l 907 1154 l 907 807 q 896 575 907 693 q 847 341 885 457 q 733 114 810 225 q 524 -99 656 3 q 516 -89 521 -94 q 505 -78 511 -83 q 493 -69 499 -72 q 697 137 622 29 q 808 358 772 244 q 855 584 844 471 q 865 806 865 697 l 865 1154 m 924 715 q 942 581 929 660 q 979 410 954 501 q 1049 231 1004 319 q 1161 65 1093 142 q 1326 -61 1229 -11 q 1309 -75 1318 -67 q 1293 -90 1300 -83 q 1125 40 1193 -39 q 1013 211 1057 119 q 942 397 968 303 q 903 572 917 490 q 883 711 890 654 l 924 715 z "},"現":{"ha":1389,"x_min":61,"x_max":1340,"o":"m 79 1083 l 546 1083 l 546 1043 l 79 1043 l 79 1083 m 100 693 l 535 693 l 535 653 l 100 653 l 100 693 m 61 186 q 202 226 122 203 q 373 276 282 249 q 556 329 464 303 l 561 289 q 301 211 431 250 q 74 143 171 172 l 61 186 m 661 810 l 661 615 l 1206 615 l 1206 810 l 661 810 m 661 575 l 661 378 l 1206 378 l 1206 575 l 661 575 m 661 1044 l 661 851 l 1206 851 l 1206 1044 l 661 1044 m 621 1085 l 1246 1085 l 1246 336 l 621 336 l 621 1085 m 999 361 l 1039 361 l 1039 -12 q 1049 -40 1039 -33 q 1092 -47 1058 -47 q 1135 -47 1103 -47 q 1203 -47 1168 -47 q 1251 -47 1238 -47 q 1281 -36 1271 -47 q 1295 11 1290 -25 q 1301 119 1300 47 q 1313 113 1307 117 q 1327 107 1319 110 q 1340 103 1335 104 q 1331 -15 1339 26 q 1306 -71 1324 -56 q 1256 -86 1289 -86 q 1226 -86 1250 -86 q 1173 -86 1201 -86 q 1121 -86 1144 -86 q 1090 -86 1097 -86 q 1034 -81 1054 -86 q 1006 -59 1014 -75 q 999 -12 999 -43 l 999 361 m 771 360 l 813 360 q 778 200 801 272 q 714 70 756 128 q 607 -31 672 13 q 447 -106 542 -75 q 440 -94 444 -100 q 429 -81 435 -87 q 419 -72 424 -75 q 576 -3 513 -44 q 678 92 639 38 q 740 214 718 147 q 771 360 761 281 m 297 1067 l 338 1067 l 338 247 l 297 236 l 297 1067 z "},"生":{"ha":1389,"x_min":83,"x_max":1310,"o":"m 292 865 l 1249 865 l 1249 825 l 292 825 l 292 865 m 226 460 l 1201 460 l 1201 419 l 226 419 l 226 460 m 83 -8 l 1310 -8 l 1310 -49 l 83 -49 l 83 -8 m 676 1153 l 718 1153 l 718 -29 l 676 -29 l 676 1153 m 374 1125 l 414 1117 q 344 910 385 1010 q 253 724 303 810 q 146 571 203 638 q 135 579 142 575 q 121 588 128 583 q 108 594 114 593 q 217 744 168 660 q 306 925 267 828 q 374 1125 346 1022 z "},"痛":{"ha":1389,"x_min":44,"x_max":1308,"o":"m 474 863 l 1149 863 l 1149 822 l 474 822 l 474 863 m 479 186 l 1215 186 l 1215 146 l 479 146 l 479 186 m 479 386 l 1215 386 l 1215 344 l 479 344 l 479 386 m 818 572 l 860 572 l 860 -90 l 818 -90 l 818 572 m 456 583 l 1218 583 l 1218 542 l 496 542 l 496 -99 l 456 -99 l 456 583 m 1200 583 l 1240 583 l 1240 -33 q 1233 -71 1240 -58 q 1206 -89 1225 -83 q 1142 -95 1185 -94 q 1029 -96 1100 -96 q 1023 -78 1028 -89 q 1013 -57 1018 -67 q 1117 -58 1074 -58 q 1175 -57 1161 -58 q 1195 -51 1190 -56 q 1200 -33 1200 -47 l 1200 583 m 1143 863 l 1153 863 l 1163 865 l 1193 846 q 1088 769 1149 806 q 963 702 1028 732 q 836 650 897 672 q 823 665 831 657 q 808 678 815 672 q 933 727 869 699 q 1051 789 996 756 q 1143 854 1107 822 l 1143 863 m 592 719 l 618 750 q 769 706 690 733 q 917 649 847 679 q 1033 590 988 618 l 1006 556 q 890 615 960 583 q 743 674 821 646 q 592 719 665 703 m 297 1006 l 1308 1006 l 1308 965 l 297 965 l 297 1006 m 275 1006 l 317 1006 l 317 581 q 310 414 317 501 q 282 236 303 326 q 220 61 261 146 q 111 -96 179 -24 q 103 -86 108 -92 q 92 -76 97 -81 q 81 -68 86 -71 q 185 83 146 1 q 243 250 224 164 q 269 420 263 336 q 275 581 275 504 l 275 1006 m 72 874 l 110 888 q 178 756 147 828 q 221 633 210 683 l 182 615 q 140 741 172 668 q 72 874 108 814 m 44 336 q 156 397 92 360 q 289 472 219 433 l 299 439 q 179 368 239 403 q 67 303 119 333 l 44 336 m 700 1140 l 733 1156 q 794 1072 764 1118 q 842 996 824 1026 l 806 975 q 758 1054 789 1007 q 700 1140 728 1101 z "},"白":{"ha":1389,"x_min":229,"x_max":1161,"o":"m 246 53 l 1146 53 l 1146 13 l 246 13 l 246 53 m 235 485 l 1147 485 l 1147 444 l 235 444 l 235 485 m 229 911 l 1161 911 l 1161 -89 l 1121 -89 l 1121 869 l 269 869 l 269 -99 l 229 -99 l 229 911 m 660 1158 l 700 1140 q 644 1004 674 1076 q 586 879 614 932 l 550 894 q 590 977 569 931 q 628 1072 610 1024 q 660 1158 647 1119 z "},"祈":{"ha":1389,"x_min":71,"x_max":1322,"o":"m 103 908 l 525 908 l 525 867 l 103 867 l 103 908 m 311 563 l 351 610 l 351 -97 l 311 -97 l 311 563 m 350 606 q 395 562 365 593 q 460 494 425 531 q 526 426 496 457 q 569 379 556 394 l 540 344 q 496 397 525 364 q 433 466 467 429 q 369 534 399 503 q 321 582 339 565 l 350 606 m 514 908 l 524 908 l 532 911 l 557 894 q 436 675 511 781 q 274 482 361 569 q 101 332 186 394 q 93 343 99 338 q 82 354 88 349 q 71 363 76 360 q 242 506 156 421 q 400 691 328 590 q 514 896 472 792 l 514 908 m 247 1128 l 276 1150 q 362 1058 321 1108 q 424 968 403 1007 l 389 942 q 331 1034 371 982 q 247 1128 290 1086 m 708 694 l 1322 694 l 1322 654 l 708 654 l 708 694 m 1035 674 l 1075 674 l 1075 -97 l 1035 -97 l 1035 674 m 1218 1146 l 1261 1117 q 1098 1063 1192 1089 q 901 1016 1004 1038 q 700 978 799 994 q 694 994 699 985 q 685 1011 689 1003 q 881 1051 781 1029 q 1071 1097 982 1072 q 1218 1146 1160 1122 m 685 1011 l 726 1011 l 726 657 q 721 482 726 576 q 699 289 715 388 q 652 95 683 190 q 569 -83 621 0 q 560 -73 567 -78 q 548 -63 554 -68 q 536 -57 542 -58 q 616 115 586 24 q 660 301 646 206 q 680 487 675 396 q 685 657 685 578 l 685 1011 z "},"神":{"ha":1389,"x_min":65,"x_max":1268,"o":"m 610 915 l 1268 915 l 1268 219 l 1226 219 l 1226 874 l 651 874 l 651 213 l 610 213 l 610 915 m 631 622 l 1257 622 l 1257 582 l 631 582 l 631 622 m 631 322 l 1257 322 l 1257 282 l 631 282 l 631 322 m 915 1153 l 956 1153 l 956 -96 l 915 -96 l 915 1153 m 86 908 l 517 908 l 517 867 l 86 867 l 86 908 m 300 563 l 340 610 l 340 -97 l 300 -97 l 300 563 m 339 606 q 385 562 354 593 q 451 494 415 531 q 516 426 486 457 q 558 379 546 394 l 529 344 q 485 397 514 364 q 422 466 456 429 q 358 534 389 503 q 311 582 328 565 l 339 606 m 503 908 l 513 908 l 522 911 l 546 894 q 427 675 501 781 q 267 482 353 569 q 97 332 181 394 q 89 344 94 338 q 77 355 83 350 q 65 363 71 360 q 234 506 149 421 q 390 691 319 590 q 503 896 461 792 l 503 908 m 247 1128 l 278 1150 q 358 1060 318 1110 q 419 974 399 1010 l 386 946 q 326 1035 365 985 q 247 1128 288 1086 z "},"祭":{"ha":1389,"x_min":58,"x_max":1326,"o":"m 369 1154 l 414 1147 q 304 959 372 1060 q 138 775 236 858 q 128 784 133 779 q 117 793 122 789 q 106 799 111 797 q 267 976 200 878 q 369 1154 335 1074 m 332 1049 l 640 1049 l 640 1007 l 308 1007 l 332 1049 m 632 1049 l 640 1049 l 649 1051 l 674 1038 q 531 751 625 876 q 321 538 438 625 q 85 403 204 451 q 73 422 81 411 q 58 438 65 432 q 233 524 146 469 q 398 656 319 579 q 537 829 476 733 q 632 1038 597 925 l 632 1049 m 257 929 l 281 953 q 367 888 322 924 q 451 820 411 853 q 518 764 492 788 l 494 732 q 428 792 468 758 q 343 863 388 826 q 257 929 299 899 m 874 236 l 904 258 q 1022 173 960 219 q 1139 82 1083 126 q 1232 4 1194 38 l 1203 -24 q 1111 55 1167 10 q 993 148 1056 100 q 874 236 931 196 m 751 1067 l 1169 1067 l 1169 1025 l 751 1025 l 751 1067 m 425 589 l 978 589 l 978 547 l 425 547 l 425 589 m 190 390 l 1226 390 l 1226 350 l 190 350 l 190 390 m 1153 1067 l 1163 1067 l 1171 1069 l 1201 1050 q 1116 930 1165 992 q 1017 813 1067 868 q 926 714 968 757 q 912 728 921 721 q 896 739 903 735 q 986 834 938 779 q 1079 948 1035 889 q 1153 1057 1124 1007 l 1153 1067 m 757 1003 q 901 772 813 881 q 1099 581 989 664 q 1326 451 1208 499 q 1315 441 1321 447 q 1305 428 1310 435 q 1296 415 1300 422 q 1067 554 1178 468 q 867 751 957 640 q 719 989 778 863 l 757 1003 m 468 261 l 507 246 q 397 149 456 199 q 279 53 339 99 q 165 -28 219 8 q 156 -20 163 -25 q 141 -10 149 -15 q 128 -3 133 -6 q 306 122 215 50 q 468 261 397 193 m 97 679 q 215 692 150 685 q 356 708 281 700 l 357 668 q 225 653 288 661 q 106 638 163 644 l 97 679 m 675 374 l 717 374 l 717 -99 l 675 -99 l 675 374 z "},"竭":{"ha":1389,"x_min":81,"x_max":1317,"o":"m 713 843 l 713 678 l 1211 678 l 1211 843 l 713 843 m 713 1046 l 713 883 l 1211 883 l 1211 1046 l 713 1046 m 671 1086 l 1253 1086 l 1253 638 l 671 638 l 671 1086 m 797 658 l 838 649 q 751 499 800 572 q 646 363 701 426 q 533 250 590 300 q 524 258 531 253 q 511 268 518 263 q 499 276 504 274 q 666 449 586 349 q 797 658 746 550 m 733 514 l 1286 514 l 1286 472 l 710 472 l 733 514 m 1275 514 l 1317 514 q 1317 508 1317 514 q 1317 497 1317 503 q 1315 485 1317 490 q 1294 180 1306 293 q 1268 9 1282 67 q 1235 -71 1254 -49 q 1203 -91 1221 -85 q 1158 -99 1186 -97 q 1086 -97 1133 -99 q 986 -92 1039 -96 q 982 -72 985 -83 q 974 -53 979 -61 q 1082 -59 1032 -58 q 1150 -60 1132 -60 q 1181 -58 1169 -60 q 1201 -46 1193 -56 q 1231 29 1218 -28 q 1255 201 1244 86 q 1275 504 1265 315 l 1275 514 m 975 446 l 1018 439 q 975 315 1004 378 q 903 197 946 251 q 803 106 860 143 q 792 121 799 113 q 778 135 785 129 q 906 275 856 189 q 975 446 957 361 m 932 294 l 964 315 q 1067 222 1014 274 q 1151 133 1121 169 l 1119 108 q 1035 199 1089 146 q 932 294 982 253 m 639 408 l 679 408 l 679 124 q 690 80 679 92 q 732 68 700 68 q 793 68 749 68 q 891 68 838 68 q 989 68 944 68 q 1050 68 1033 68 q 1103 69 1071 68 q 1153 74 1136 71 q 1156 53 1154 64 q 1160 35 1158 42 q 1116 32 1146 33 q 1051 31 1086 31 q 1003 31 1038 31 q 926 31 969 31 q 842 31 883 31 q 770 31 800 31 q 733 31 740 31 q 676 39 697 31 q 647 68 656 47 q 639 125 639 89 l 639 408 m 82 874 l 525 874 l 525 833 l 82 833 l 82 874 m 81 97 q 211 131 138 111 q 368 175 285 151 q 535 222 451 199 l 540 182 q 302 114 421 147 q 93 54 183 81 l 81 97 m 135 746 l 171 753 q 205 572 189 668 q 233 385 221 476 q 247 219 244 293 l 210 214 q 194 379 206 288 q 168 567 183 471 q 135 746 153 663 m 428 769 l 467 758 q 444 606 457 688 q 417 442 432 525 q 388 283 403 358 q 360 149 374 207 l 328 160 q 356 294 342 218 q 383 455 369 371 q 408 620 397 539 q 428 769 419 701 m 233 1125 l 268 1139 q 326 1032 297 1090 q 368 931 354 974 l 331 914 q 289 1017 317 957 q 233 1125 261 1076 z "},"終":{"ha":1389,"x_min":60,"x_max":1318,"o":"m 797 401 l 829 428 q 930 379 878 407 q 1029 323 982 351 q 1107 269 1076 294 l 1074 242 q 997 294 1043 265 q 898 352 950 324 q 797 401 846 381 m 644 121 l 672 153 q 821 107 743 133 q 974 51 899 81 q 1114 -9 1049 21 q 1225 -65 1179 -39 l 1199 -100 q 1043 -22 1136 -64 q 846 58 950 19 q 644 121 742 96 m 832 1154 l 875 1149 q 757 933 832 1049 q 572 724 682 818 q 563 732 568 728 q 551 740 557 736 q 540 747 546 744 q 667 878 611 807 q 765 1021 724 949 q 832 1154 807 1093 m 768 996 l 1179 996 l 1179 954 l 747 954 l 768 996 m 1163 996 l 1174 996 l 1183 999 l 1208 982 q 1053 727 1151 842 q 837 526 956 613 q 596 383 718 440 q 590 394 594 389 q 579 406 585 400 q 568 415 574 413 q 804 552 688 468 q 1016 746 921 636 q 1163 985 1111 856 l 1163 996 m 749 946 q 897 724 807 831 q 1097 535 988 618 q 1318 404 1206 451 q 1307 394 1313 400 q 1296 383 1301 389 q 1286 369 1290 376 q 1065 507 1175 421 q 865 703 956 593 q 714 931 774 813 l 749 946 m 400 629 l 442 638 q 482 538 463 592 q 517 435 501 485 q 540 350 533 386 l 497 338 q 475 425 490 375 q 440 528 460 475 q 400 629 421 582 m 271 281 l 311 286 q 335 130 324 214 q 350 -15 347 46 l 310 -22 q 302 72 308 19 q 288 178 296 124 q 271 281 281 233 m 138 283 l 181 275 q 144 97 165 188 q 100 -60 122 6 q 88 -54 96 -57 q 73 -48 81 -51 q 60 -43 65 -44 q 105 111 86 24 q 138 283 124 199 m 82 665 q 78 680 81 671 q 72 698 75 689 q 67 713 69 707 q 101 737 82 715 q 140 792 119 758 q 192 869 157 813 q 267 1001 226 925 q 339 1154 308 1076 l 382 1135 q 301 975 344 1054 q 213 825 258 896 q 121 697 168 754 l 121 696 q 115 693 121 696 q 101 685 110 690 q 88 676 93 681 q 82 665 82 671 m 82 665 l 82 704 l 114 721 l 357 746 q 356 726 356 736 q 356 708 356 715 q 219 690 271 697 q 141 679 168 683 q 101 672 114 675 q 82 665 89 668 m 90 361 q 86 375 89 367 q 81 392 83 383 q 75 407 78 401 q 117 436 93 410 q 172 500 142 463 q 222 563 189 519 q 295 665 254 606 q 378 792 336 724 q 457 931 421 861 l 499 911 q 382 721 443 815 q 257 542 321 626 q 129 390 193 458 l 129 389 q 124 387 129 389 q 110 381 118 385 q 96 372 101 376 q 90 361 90 367 m 90 361 l 90 399 l 122 418 l 485 469 q 485 449 485 460 q 486 432 485 439 q 284 401 360 413 q 169 381 208 389 q 115 369 131 374 q 90 361 99 365 m 406 306 l 443 315 q 491 182 467 254 q 525 57 515 110 l 485 46 q 452 172 475 99 q 406 306 429 244 z "},"結":{"ha":1389,"x_min":57,"x_max":1310,"o":"m 586 951 l 1310 951 l 1310 911 l 586 911 l 586 951 m 629 632 l 1268 632 l 1268 590 l 629 590 l 629 632 m 681 3 l 1208 3 l 1208 -37 l 681 -37 l 681 3 m 915 1154 l 956 1154 l 956 608 l 915 608 l 915 1154 m 658 408 l 1222 408 l 1222 -92 l 1182 -92 l 1182 368 l 699 368 l 699 -97 l 658 -97 l 658 408 m 426 629 l 467 638 q 507 538 488 592 q 542 435 526 485 q 567 350 558 386 l 524 338 q 501 425 517 375 q 467 528 486 475 q 426 629 447 582 m 289 281 l 328 286 q 355 124 343 211 q 371 -28 367 36 l 329 -35 q 321 63 326 8 q 307 174 315 117 q 289 281 299 231 m 138 283 l 181 275 q 142 88 164 183 q 99 -76 121 -8 q 80 -68 93 -74 q 57 -60 67 -62 q 104 102 85 10 q 138 283 124 194 m 82 665 q 78 680 81 671 q 72 698 75 689 q 67 713 69 707 q 101 737 82 715 q 143 790 121 758 q 180 843 156 807 q 235 930 204 879 q 297 1038 267 981 q 353 1154 328 1096 l 396 1135 q 265 897 336 1013 q 121 696 194 782 l 121 694 q 115 692 121 694 q 101 685 110 689 q 88 676 93 681 q 82 665 82 671 m 82 665 l 82 704 l 114 721 l 364 746 q 363 726 363 738 q 364 708 363 715 q 224 690 276 697 q 142 679 171 683 q 101 672 114 675 q 82 665 89 668 m 90 361 q 86 375 89 367 q 81 392 83 383 q 75 407 78 401 q 118 436 93 410 q 174 500 143 463 q 224 563 190 519 q 299 665 257 606 q 385 792 342 724 q 465 931 429 861 l 508 911 q 388 720 450 814 q 260 542 325 626 q 129 390 194 458 l 129 389 q 124 387 129 389 q 110 381 118 385 q 96 372 101 376 q 90 361 90 367 m 90 361 l 90 399 l 124 419 l 514 474 q 513 454 513 465 q 515 436 514 443 q 297 402 378 415 q 174 382 215 389 q 115 370 132 375 q 90 361 99 365 m 426 306 l 463 315 q 513 175 489 251 q 549 46 538 99 l 510 33 q 474 165 499 89 q 426 306 450 242 z "},"羽":{"ha":1389,"x_min":85,"x_max":1243,"o":"m 97 1081 l 606 1081 l 606 1040 l 97 1040 l 97 1081 m 579 1081 l 619 1081 l 619 -7 q 609 -58 619 -42 q 572 -82 599 -75 q 489 -89 546 -87 q 353 -90 432 -90 q 348 -75 351 -83 q 341 -57 344 -67 q 333 -40 338 -47 q 428 -42 385 -42 q 503 -42 472 -43 q 547 -42 535 -42 q 573 -33 567 -40 q 579 -8 579 -26 l 579 1081 m 85 171 q 207 242 138 201 q 355 331 276 283 q 511 428 433 379 l 524 392 q 306 256 415 324 q 110 136 196 189 l 85 171 m 717 1081 l 1225 1081 l 1225 1040 l 717 1040 l 717 1081 m 1203 1081 l 1243 1081 l 1243 -4 q 1232 -58 1243 -40 q 1193 -82 1221 -75 q 1102 -89 1164 -87 q 951 -90 1040 -90 q 947 -75 950 -83 q 940 -57 943 -67 q 933 -40 938 -47 q 1037 -42 989 -42 q 1119 -42 1085 -43 q 1168 -42 1154 -42 q 1196 -33 1189 -40 q 1203 -6 1203 -25 l 1203 1081 m 760 835 l 789 861 q 905 768 844 818 q 1019 672 965 718 q 1106 590 1072 625 l 1075 558 q 987 642 1040 594 q 874 742 933 690 q 760 835 814 793 m 133 833 l 163 860 q 278 767 218 817 q 392 670 339 717 q 479 590 446 624 l 450 557 q 362 641 415 593 q 249 740 308 689 q 133 833 189 792 m 692 194 q 814 267 744 225 q 961 358 883 310 q 1117 454 1039 406 l 1129 418 q 912 282 1021 350 q 717 161 803 214 l 692 194 z "},"翼":{"ha":1389,"x_min":71,"x_max":1303,"o":"m 101 1101 l 597 1101 l 597 1061 l 101 1061 l 101 1101 m 138 293 l 1247 293 l 1247 251 l 138 251 l 138 293 m 89 147 l 1303 147 l 1303 107 l 89 107 l 89 147 m 576 1101 l 617 1101 l 617 814 q 611 786 617 796 q 590 769 606 776 q 539 763 572 764 q 449 763 506 763 q 442 780 447 769 q 433 797 438 790 q 513 796 478 796 q 557 796 547 796 q 572 801 568 797 q 576 814 576 804 l 576 1101 m 90 799 q 277 849 168 818 q 501 911 386 879 l 507 874 q 297 814 401 843 q 110 761 192 785 l 90 799 m 708 1101 l 1217 1101 l 1217 1061 l 708 1061 l 708 1101 m 1200 1101 l 1240 1101 l 1240 814 q 1235 786 1240 796 q 1211 769 1229 776 q 1160 763 1194 764 q 1065 763 1125 763 q 1059 780 1064 769 q 1049 797 1054 790 q 1133 796 1097 796 q 1181 796 1169 796 q 1196 801 1192 797 q 1200 814 1200 804 l 1200 1101 m 186 1019 l 215 1044 q 299 992 256 1022 q 368 936 343 961 l 339 908 q 272 965 315 932 q 186 1019 228 997 m 697 807 q 886 857 775 826 q 1114 921 997 888 l 1119 883 q 906 823 1013 853 q 717 769 800 793 l 697 807 m 779 1015 l 807 1040 q 892 988 849 1018 q 960 932 936 957 l 932 904 q 863 960 907 928 q 779 1015 819 993 m 276 535 l 276 431 l 1119 431 l 1119 535 l 276 535 m 276 678 l 276 576 l 1119 576 l 1119 678 l 276 678 m 236 719 l 1160 719 l 1160 389 l 236 389 l 236 719 m 672 711 l 714 711 l 714 410 l 672 410 l 672 711 m 442 397 l 482 397 l 482 121 l 442 121 l 442 397 m 904 397 l 944 397 l 944 128 l 904 128 l 904 397 m 497 85 l 536 67 q 405 2 478 33 q 255 -56 332 -29 q 108 -101 178 -82 q 99 -92 106 -97 q 85 -81 92 -86 q 71 -72 78 -75 q 222 -28 144 -53 q 372 26 300 -3 q 497 85 443 54 m 849 53 l 881 81 q 1038 38 960 63 q 1184 -15 1115 13 q 1301 -68 1253 -42 l 1263 -97 q 1082 -17 1193 -57 q 849 53 971 22 z "},"聲":{"ha":1389,"x_min":75,"x_max":1304,"o":"m 86 1076 l 693 1076 l 693 1036 l 86 1036 l 86 1076 m 136 954 l 653 954 l 653 914 l 136 914 l 136 954 m 179 851 l 642 851 l 642 642 l 171 642 l 171 682 l 600 682 l 600 810 l 179 810 l 179 851 m 160 851 l 200 851 l 200 782 q 192 694 200 743 q 165 597 185 646 q 108 504 146 547 q 98 515 104 510 q 86 524 92 519 q 75 532 81 529 q 144 661 128 593 q 160 782 160 729 l 160 851 m 371 1154 l 411 1154 l 411 933 l 371 933 l 371 1154 m 371 836 l 411 836 l 411 669 l 371 669 l 371 836 m 733 860 l 1176 860 l 1176 818 l 733 818 l 733 860 m 832 1106 l 1108 1106 l 1108 1065 l 832 1065 l 832 1106 m 1164 860 l 1174 860 l 1183 863 l 1207 849 q 1085 692 1167 756 q 901 591 1004 629 q 692 533 797 553 q 683 553 689 542 q 669 571 676 564 q 869 620 769 586 q 1049 711 969 654 q 1164 850 1128 768 l 1164 860 m 811 850 q 921 722 850 778 q 1088 628 992 665 q 1293 574 1183 590 q 1279 556 1286 567 q 1267 536 1272 546 q 969 644 1100 568 q 776 838 838 721 l 811 850 m 808 1106 l 850 1106 l 850 1036 q 839 977 850 1008 q 799 917 828 946 q 717 863 771 888 q 709 874 714 868 q 699 886 704 881 q 689 894 693 892 q 765 939 739 915 q 799 988 790 963 q 808 1036 808 1013 l 808 1106 m 133 507 l 1274 507 l 1274 465 l 133 465 l 133 507 m 328 368 l 1065 368 l 1065 326 l 328 326 l 328 368 m 328 217 l 1065 217 l 1065 176 l 328 176 l 328 217 m 306 489 l 346 489 l 346 47 l 306 47 l 306 489 m 1043 496 l 1083 496 l 1083 -104 l 1043 -104 l 1043 496 m 1086 1106 l 1128 1106 l 1128 957 q 1131 928 1128 935 q 1147 922 1135 922 q 1176 922 1156 922 q 1218 922 1197 922 q 1247 922 1239 922 q 1274 924 1258 922 q 1301 926 1290 925 q 1303 909 1301 919 q 1304 892 1304 899 q 1281 889 1296 890 q 1249 888 1265 888 q 1217 888 1240 888 q 1172 888 1194 888 q 1142 888 1149 888 q 1107 894 1119 888 q 1090 917 1094 901 q 1086 957 1086 932 l 1086 1106 m 83 75 l 1297 75 l 1297 35 l 83 35 l 83 75 z "},"自":{"ha":1389,"x_min":253,"x_max":1160,"o":"m 281 642 l 1139 642 l 1139 600 l 281 600 l 281 642 m 281 335 l 1139 335 l 1139 294 l 281 294 l 281 335 m 281 26 l 1139 26 l 1139 -15 l 281 -15 l 281 26 m 253 954 l 1160 954 l 1160 -90 l 1119 -90 l 1119 914 l 294 914 l 294 -101 l 253 -101 l 253 954 m 671 1157 l 711 1146 q 667 1030 690 1090 q 621 925 644 969 l 588 933 q 617 1004 601 964 q 648 1085 633 1044 q 671 1157 663 1125 z "},"花":{"ha":1389,"x_min":71,"x_max":1314,"o":"m 732 794 l 774 794 l 774 32 q 792 -22 774 -8 q 869 -36 810 -36 q 927 -36 885 -36 q 1021 -36 969 -36 q 1117 -36 1072 -36 q 1181 -36 1161 -36 q 1236 -19 1218 -36 q 1262 47 1254 -1 q 1274 189 1269 96 q 1293 178 1282 183 q 1314 169 1304 172 q 1299 20 1310 74 q 1262 -56 1289 -33 q 1179 -78 1235 -78 q 1140 -78 1171 -78 q 1068 -78 1110 -78 q 985 -78 1026 -78 q 912 -78 943 -78 q 874 -78 881 -78 q 789 -69 819 -78 q 745 -36 758 -60 q 732 33 732 -12 l 732 794 m 447 796 l 486 785 q 378 597 439 688 q 249 429 318 507 q 108 290 181 351 q 97 299 104 294 q 83 310 90 304 q 71 318 76 315 q 215 453 146 376 q 343 616 283 529 q 447 796 403 703 m 450 1154 l 490 1154 l 490 811 l 450 811 l 450 1154 m 901 1154 l 942 1154 l 942 799 l 901 799 l 901 1154 m 318 561 l 357 600 l 358 599 l 358 -97 l 318 -97 l 318 561 m 94 997 l 664 997 l 664 956 l 94 956 l 94 997 m 722 997 l 1292 997 l 1292 956 l 722 956 l 722 997 m 756 524 l 1289 524 l 1289 483 l 756 483 l 756 524 z "},"荊":{"ha":1389,"x_min":72,"x_max":1292,"o":"m 104 772 l 767 772 l 767 731 l 104 731 l 104 772 m 78 447 l 783 447 l 783 406 l 78 406 l 78 447 m 556 763 l 596 763 l 596 -94 l 556 -94 l 556 763 m 879 729 l 921 729 l 921 135 l 879 135 l 879 729 m 1182 800 l 1222 800 l 1222 -28 q 1213 -72 1222 -58 q 1181 -90 1203 -85 q 1111 -97 1158 -96 q 985 -97 1064 -99 q 978 -78 983 -90 q 967 -57 972 -67 q 1051 -59 1013 -58 q 1116 -59 1089 -60 q 1153 -58 1143 -58 q 1176 -51 1169 -57 q 1182 -29 1182 -44 l 1182 800 m 271 760 l 313 760 l 313 464 q 299 263 313 363 q 241 72 285 164 q 104 -101 197 -21 q 96 -91 101 -96 q 84 -81 90 -86 q 72 -74 78 -76 q 205 92 163 4 q 259 275 247 181 q 271 464 271 369 l 271 760 m 83 1007 l 642 1007 l 642 967 l 83 967 l 83 1007 m 406 1153 l 447 1153 l 447 828 l 406 828 l 406 1153 m 963 1153 l 1003 1153 l 1003 828 l 963 828 l 963 1153 m 739 1007 l 1292 1007 l 1292 967 l 739 967 l 739 1007 z "},"虛":{"ha":1389,"x_min":72,"x_max":1282,"o":"m 674 1026 l 1203 1026 l 1203 986 l 674 986 l 674 1026 m 214 860 l 1250 860 l 1250 818 l 214 818 l 214 860 m 240 -17 l 1282 -17 l 1282 -57 l 240 -57 l 240 -17 m 656 1153 l 696 1153 l 696 835 l 656 835 l 656 1153 m 604 418 l 646 418 l 646 -35 l 604 -35 l 604 418 m 865 418 l 907 418 l 907 -35 l 865 -35 l 865 418 m 332 651 l 1083 726 l 1088 686 l 338 611 l 332 651 m 192 860 l 233 860 l 233 517 q 228 370 233 449 q 210 210 224 292 q 172 49 197 128 q 106 -96 147 -29 q 97 -87 103 -92 q 84 -78 90 -83 q 72 -72 78 -74 q 137 69 113 -6 q 173 223 161 144 q 188 376 185 301 q 192 517 192 451 l 192 860 m 1239 860 l 1247 860 l 1257 863 l 1282 851 q 1244 751 1264 803 q 1204 664 1224 700 l 1168 676 q 1206 758 1188 711 q 1239 850 1225 806 l 1239 860 m 368 394 l 408 394 l 408 174 l 631 174 l 631 132 l 368 132 l 368 394 m 1124 394 l 1164 394 l 1164 132 l 892 132 l 892 174 l 1124 174 l 1124 394 m 654 826 l 696 826 l 696 590 q 706 547 696 558 q 751 535 717 535 q 802 535 765 535 q 887 535 839 535 q 982 535 935 535 q 1067 535 1029 535 q 1118 535 1104 535 q 1156 535 1135 535 q 1199 538 1178 536 q 1233 540 1221 539 q 1236 520 1235 531 q 1239 503 1238 510 q 1192 499 1225 500 q 1121 497 1160 497 q 1066 497 1106 497 q 976 497 1026 497 q 878 497 926 497 q 794 497 829 497 q 751 497 758 497 q 692 506 713 497 q 663 535 671 515 q 654 590 654 556 l 654 826 z "},"見":{"ha":1389,"x_min":68,"x_max":1322,"o":"m 313 818 l 313 618 l 1075 618 l 1075 818 l 313 818 m 313 578 l 313 375 l 1075 375 l 1075 578 l 313 578 m 313 1058 l 313 860 l 1075 860 l 1075 1058 l 313 1058 m 271 1099 l 1117 1099 l 1117 333 l 271 333 l 271 1099 m 808 357 l 850 357 l 850 -3 q 866 -37 850 -29 q 933 -46 882 -46 q 982 -46 946 -46 q 1063 -46 1018 -46 q 1145 -46 1107 -46 q 1201 -46 1183 -46 q 1251 -32 1235 -46 q 1273 26 1267 -18 q 1282 161 1279 71 q 1294 153 1288 157 q 1309 146 1301 149 q 1322 142 1317 143 q 1310 0 1319 50 q 1276 -69 1300 -50 q 1203 -87 1251 -87 q 1169 -87 1196 -87 q 1106 -87 1142 -87 q 1033 -87 1069 -87 q 969 -87 996 -87 q 936 -87 943 -87 q 859 -81 888 -87 q 819 -56 831 -75 q 808 -3 808 -37 l 808 357 m 481 354 l 525 354 q 485 192 513 264 q 408 66 457 121 q 282 -28 358 11 q 94 -94 206 -68 q 88 -83 93 -90 q 78 -70 83 -76 q 68 -60 72 -64 q 251 1 176 -36 q 372 90 325 39 q 444 206 419 140 q 481 354 469 272 z "},"覺":{"ha":1389,"x_min":68,"x_max":1315,"o":"m 357 414 l 357 322 l 1033 322 l 1033 414 l 357 414 m 357 282 l 357 188 l 1033 188 l 1033 282 l 357 282 m 357 544 l 357 454 l 1033 454 l 1033 544 l 357 544 m 317 586 l 1074 586 l 1074 147 l 317 147 l 317 586 m 803 181 l 844 181 l 844 -4 q 860 -31 844 -25 q 929 -37 875 -37 q 978 -37 942 -37 q 1058 -37 1014 -37 q 1142 -37 1103 -37 q 1199 -37 1181 -37 q 1246 -27 1231 -37 q 1267 20 1261 -17 q 1275 133 1274 57 q 1294 123 1283 128 q 1315 115 1306 118 q 1303 -6 1313 36 q 1271 -64 1294 -49 q 1203 -79 1247 -79 q 1168 -79 1196 -79 q 1103 -79 1140 -79 q 1029 -79 1067 -79 q 965 -79 992 -79 q 932 -79 939 -79 q 853 -74 882 -79 q 814 -53 825 -69 q 803 -4 803 -36 l 803 181 m 515 181 l 558 181 q 504 70 540 117 q 412 -8 468 24 q 276 -62 356 -40 q 90 -97 197 -83 q 81 -80 88 -90 q 68 -64 74 -69 q 249 -32 172 -51 q 378 17 325 -12 q 465 86 432 46 q 515 181 499 126 m 126 719 l 1264 719 l 1264 531 l 1222 531 l 1222 678 l 168 678 l 168 531 l 126 531 l 126 719 m 1118 1090 l 1157 1090 q 1152 954 1156 1028 q 1145 813 1149 881 q 1138 694 1142 744 l 1097 694 q 1107 814 1103 744 q 1114 956 1111 883 q 1118 1090 1117 1029 m 883 1090 l 1136 1090 l 1136 1050 l 883 1050 l 883 1090 m 471 1154 l 500 1129 q 381 1075 449 1099 q 258 1035 314 1051 l 235 1060 q 316 1088 272 1071 q 401 1122 360 1104 q 471 1154 442 1140 m 263 967 l 497 967 l 497 926 l 263 926 l 263 967 m 264 843 l 511 843 l 511 801 l 264 801 l 264 843 m 900 967 l 1135 967 l 1135 926 l 900 926 l 900 967 m 886 843 l 1126 843 l 1126 801 l 886 801 l 886 843 m 757 1147 l 797 1136 q 696 1033 757 1083 q 575 946 635 982 q 560 960 571 951 q 542 974 550 969 q 661 1052 603 1007 q 757 1147 719 1097 m 564 1104 l 593 1129 q 703 1060 646 1101 q 790 986 760 1019 l 761 957 q 675 1033 731 990 q 564 1104 619 1075 m 781 940 l 819 931 q 704 812 774 868 q 567 717 635 756 q 552 731 563 722 q 533 744 542 739 q 670 833 603 782 q 781 940 738 883 m 583 894 l 611 919 q 689 872 650 899 q 762 818 728 846 q 817 767 796 790 l 788 738 q 733 791 767 763 q 660 847 699 819 q 583 894 622 874 m 236 1060 l 278 1056 l 293 697 l 253 697 l 236 1060 z "},"鏡":{"ha":1389,"x_min":50,"x_max":1328,"o":"m 618 1033 l 1293 1033 l 1293 993 l 618 993 l 618 1033 m 575 781 l 1324 781 l 1324 739 l 575 739 l 575 781 m 751 956 l 789 967 q 833 866 813 921 q 863 772 854 811 l 822 758 q 794 853 814 799 q 751 956 775 908 m 1114 961 l 1156 943 q 1112 843 1136 896 q 1067 753 1088 790 l 1031 768 q 1076 863 1053 807 q 1114 961 1100 919 m 699 435 l 699 308 l 1206 308 l 1206 435 l 699 435 m 699 599 l 699 475 l 1206 475 l 1206 599 l 699 599 m 658 640 l 1247 640 l 1247 267 l 658 267 l 658 640 m 814 278 l 856 278 q 833 122 851 186 q 776 15 814 58 q 673 -56 738 -29 q 510 -103 608 -83 q 503 -91 508 -97 q 494 -78 499 -85 q 483 -68 489 -72 q 641 -26 579 -51 q 740 38 703 -1 q 793 135 776 76 q 814 278 810 193 m 161 811 l 542 811 l 542 771 l 161 771 l 161 811 m 79 576 l 589 576 l 589 535 l 79 535 l 79 576 m 128 431 l 167 439 q 209 291 192 371 q 229 154 226 211 l 186 144 q 169 283 185 203 q 128 431 153 363 m 68 0 q 221 32 135 14 q 403 71 307 50 q 597 114 500 92 l 600 76 q 324 13 461 44 q 79 -42 186 -18 l 68 0 m 515 453 l 558 440 q 522 296 542 372 q 483 165 503 219 l 447 178 q 472 263 460 214 q 497 363 485 313 q 515 453 508 413 m 324 800 l 365 800 l 365 35 l 324 31 l 324 800 m 1017 278 l 1058 278 l 1058 0 q 1072 -49 1058 -42 q 1118 -54 1085 -54 q 1156 -54 1132 -54 q 1199 -54 1181 -54 q 1231 -53 1214 -54 q 1254 -49 1247 -51 q 1281 -15 1274 -42 q 1285 35 1283 1 q 1288 114 1286 68 q 1307 103 1296 108 q 1328 96 1318 99 q 1324 13 1326 53 q 1315 -43 1321 -28 q 1299 -69 1310 -60 q 1275 -83 1289 -78 q 1242 -89 1264 -87 q 1203 -90 1221 -90 q 1177 -90 1196 -90 q 1141 -90 1158 -90 q 1117 -90 1124 -90 q 1078 -87 1099 -90 q 1043 -78 1057 -85 q 1022 -51 1028 -68 q 1017 15 1017 -33 l 1017 278 m 356 1160 l 396 1144 q 307 997 358 1068 q 198 863 256 925 q 81 753 140 801 q 74 765 79 758 q 62 780 68 772 q 50 792 56 788 q 222 954 139 857 q 356 1160 304 1051 m 314 1065 l 335 1096 q 438 1028 388 1065 q 533 952 489 990 q 610 876 578 914 l 583 842 q 508 918 553 879 q 414 995 464 957 q 314 1065 364 1033 m 869 1143 l 904 1158 q 964 1087 935 1126 q 1007 1017 993 1047 l 969 999 q 927 1070 956 1029 q 869 1143 899 1111 z "},"間":{"ha":1389,"x_min":140,"x_max":1256,"o":"m 463 299 l 924 299 l 924 257 l 463 257 l 463 299 m 463 513 l 942 513 l 942 32 l 463 32 l 463 72 l 901 72 l 901 471 l 463 471 l 463 513 m 440 513 l 481 513 l 481 -39 l 440 -39 l 440 513 m 161 886 l 585 886 l 585 846 l 161 846 l 161 886 m 797 886 l 1233 886 l 1233 846 l 797 846 l 797 886 m 1214 1088 l 1256 1088 l 1256 -19 q 1245 -67 1256 -51 q 1208 -90 1235 -83 q 1131 -97 1183 -96 q 993 -97 1078 -97 q 989 -84 992 -92 q 983 -68 986 -76 q 975 -53 979 -60 q 1066 -54 1024 -54 q 1139 -53 1108 -54 q 1182 -53 1169 -53 q 1207 -44 1200 -51 q 1214 -19 1214 -37 l 1214 1088 m 164 1088 l 614 1088 l 614 638 l 164 638 l 164 678 l 574 678 l 574 1047 l 164 1047 l 164 1088 m 1229 1088 l 1229 1047 l 811 1047 l 811 678 l 1229 678 l 1229 638 l 771 638 l 771 1088 l 1229 1088 m 140 1088 l 182 1088 l 182 -100 l 140 -100 l 140 1088 z "},"靈":{"ha":1389,"x_min":82,"x_max":1308,"o":"m 174 1089 l 1215 1089 l 1215 1049 l 174 1049 l 174 1089 m 669 1075 l 711 1075 l 711 664 l 669 664 l 669 1075 m 129 953 l 1261 953 l 1261 736 l 1219 736 l 1219 913 l 171 913 l 171 736 l 129 736 l 129 953 m 238 696 q 389 717 303 704 q 568 743 475 729 l 569 708 q 405 681 485 694 q 256 656 325 667 l 238 696 m 276 860 l 294 889 q 392 864 342 879 q 488 833 443 849 q 564 800 533 817 l 547 765 q 471 799 517 782 q 374 833 425 817 q 276 860 324 849 m 1104 892 l 1132 860 q 1038 824 1090 842 q 933 793 986 807 q 835 769 879 779 l 813 796 q 911 824 857 807 q 1017 859 965 840 q 1104 892 1068 878 m 813 719 l 829 750 q 946 733 885 744 q 1063 709 1007 722 q 1157 682 1118 696 l 1142 646 q 1048 674 1104 660 q 931 700 992 688 q 813 719 869 713 m 669 319 l 711 319 l 711 -22 l 669 -22 l 669 319 m 171 331 l 1218 331 l 1218 290 l 171 290 l 171 331 m 82 -6 l 1308 -6 l 1308 -46 l 82 -46 l 82 -6 m 429 272 l 469 264 q 372 117 436 183 q 235 8 307 51 q 220 23 231 14 q 201 38 210 32 q 337 138 275 78 q 429 272 399 197 m 949 274 l 993 268 q 913 115 969 181 q 783 7 856 49 q 769 23 779 13 q 750 39 758 33 q 875 135 822 76 q 949 274 928 194 m 381 153 l 404 179 q 510 115 456 153 q 596 47 565 78 l 574 17 q 488 85 542 47 q 381 153 433 124 m 919 153 l 940 181 q 1024 139 981 163 q 1105 91 1067 115 q 1167 46 1143 67 l 1144 14 q 1044 85 1107 46 q 919 153 981 124 m 221 572 l 221 436 l 422 436 l 422 572 l 221 572 m 181 613 l 463 613 l 463 394 l 181 394 l 181 613 m 586 572 l 586 436 l 792 436 l 792 572 l 586 572 m 544 613 l 832 613 l 832 394 l 544 394 l 544 613 m 960 572 l 960 436 l 1174 436 l 1174 572 l 960 572 m 919 613 l 1214 613 l 1214 394 l 919 394 l 919 613 z "},"音":{"ha":1389,"x_min":82,"x_max":1308,"o":"m 163 1013 l 1235 1013 l 1235 972 l 163 972 l 163 1013 m 82 679 l 1308 679 l 1308 639 l 82 639 l 82 679 m 313 244 l 1090 244 l 1090 203 l 313 203 l 313 244 m 315 -1 l 1093 -1 l 1093 -42 l 315 -42 l 315 -1 m 293 481 l 1108 481 l 1108 -94 l 1068 -94 l 1068 440 l 333 440 l 333 -100 l 293 -100 l 293 481 m 993 953 l 1033 938 q 987 840 1013 892 q 934 739 961 788 q 882 653 907 690 l 850 667 q 901 755 874 704 q 952 858 928 806 q 993 953 976 911 m 369 936 l 404 949 q 472 826 443 893 q 511 710 501 758 l 471 694 q 433 813 461 746 q 369 936 406 881 m 633 1146 l 668 1160 q 718 1076 696 1122 q 750 996 740 1029 l 711 981 q 681 1062 703 1015 q 633 1146 660 1108 z "},"願":{"ha":1389,"x_min":53,"x_max":1343,"o":"m 172 1078 l 693 1078 l 693 1038 l 172 1038 l 172 1078 m 308 289 l 350 281 q 305 130 332 204 q 246 3 278 56 q 228 14 240 7 q 207 25 217 21 q 267 147 242 78 q 308 289 292 217 m 586 278 l 624 289 q 678 169 651 233 q 715 61 704 104 l 674 46 q 638 156 664 90 q 586 278 613 222 m 150 1078 l 190 1078 l 190 593 q 187 434 190 519 q 174 260 183 349 q 143 87 164 171 q 89 -68 122 3 q 78 -60 85 -64 q 65 -52 71 -56 q 53 -47 58 -49 q 118 159 97 47 q 144 384 139 271 q 150 593 150 497 l 150 1078 m 321 596 l 321 406 l 636 406 l 636 596 l 321 596 m 321 825 l 321 638 l 636 638 l 636 825 l 321 825 m 281 865 l 676 865 l 676 365 l 281 365 l 281 865 m 456 376 l 496 376 l 496 -40 q 490 -72 496 -61 q 467 -89 483 -82 q 419 -95 451 -94 q 333 -96 386 -96 q 327 -78 332 -89 q 318 -58 322 -67 q 394 -60 363 -60 q 438 -58 426 -60 q 456 -40 456 -57 l 456 376 m 456 1046 l 500 1036 q 475 931 488 985 q 451 836 463 876 l 411 846 q 436 944 422 886 q 456 1046 450 1003 m 728 1078 l 1317 1078 l 1317 1038 l 728 1038 l 728 1078 m 822 603 l 822 419 l 1235 419 l 1235 603 l 822 603 m 822 379 l 822 193 l 1235 193 l 1235 379 l 822 379 m 822 825 l 822 644 l 1235 644 l 1235 825 l 822 825 m 782 865 l 1275 865 l 1275 153 l 782 153 l 782 865 m 1000 1067 l 1044 1058 q 1019 944 1032 1004 q 996 840 1007 885 l 954 850 q 972 918 963 879 q 988 997 981 957 q 1000 1067 996 1036 m 907 99 l 953 79 q 875 13 919 46 q 783 -49 831 -21 q 690 -99 736 -78 q 676 -82 686 -92 q 660 -67 667 -72 q 753 -19 706 -46 q 841 39 800 8 q 907 99 882 69 m 1103 76 l 1138 99 q 1213 42 1174 74 q 1288 -19 1253 11 q 1343 -75 1322 -50 l 1310 -100 q 1254 -44 1289 -75 q 1180 19 1219 -12 q 1103 76 1140 51 z "},"黑":{"ha":1389,"x_min":82,"x_max":1308,"o":"m 269 1054 l 269 714 l 1108 714 l 1108 1054 l 269 1054 m 229 1094 l 1149 1094 l 1149 672 l 229 672 l 229 1094 m 392 990 l 428 1003 q 494 890 464 951 q 535 783 525 828 l 499 767 q 458 875 488 811 q 392 990 428 939 m 201 511 l 1183 511 l 1183 469 l 201 469 l 201 511 m 82 289 l 1308 289 l 1308 249 l 82 249 l 82 289 m 671 1079 l 713 1079 l 713 271 l 671 271 l 671 1079 m 946 1001 l 986 983 q 915 857 954 924 q 842 744 875 790 l 810 763 q 859 836 833 794 q 908 922 885 878 q 946 1001 931 967 m 493 132 l 531 133 q 555 19 546 81 q 564 -83 564 -43 l 525 -90 q 515 15 524 -47 q 493 132 507 78 m 785 132 l 822 139 q 873 26 849 88 q 908 -78 897 -36 l 869 -89 q 835 17 860 -44 q 785 132 810 79 m 1075 135 l 1110 151 q 1185 76 1147 118 q 1254 -5 1222 35 q 1306 -76 1286 -44 l 1271 -96 q 1219 -24 1251 -64 q 1150 58 1188 15 q 1075 135 1113 100 m 258 153 l 294 143 q 224 11 267 79 q 129 -103 182 -57 l 97 -83 q 189 24 146 -40 q 258 153 232 89 z "},"默":{"ha":1389,"x_min":72,"x_max":1318,"o":"m 981 729 q 1048 398 1004 551 q 1159 128 1092 244 q 1318 -54 1226 13 q 1307 -65 1313 -58 q 1297 -79 1301 -72 q 1288 -92 1292 -86 q 1127 102 1194 -18 q 1015 380 1060 222 q 943 722 969 538 l 981 729 m 724 738 l 1300 738 l 1300 697 l 724 697 l 724 738 m 1051 1067 l 1083 1085 q 1142 1008 1113 1050 q 1197 928 1171 967 q 1238 861 1222 890 l 1204 836 q 1164 906 1189 867 q 1110 988 1139 946 q 1051 1067 1081 1031 m 946 1153 l 988 1153 l 988 879 q 979 642 988 767 q 943 390 971 518 q 860 138 915 263 q 714 -100 806 14 q 698 -85 708 -93 q 676 -71 688 -76 q 824 162 769 40 q 904 408 878 283 q 938 653 931 533 q 946 878 946 772 l 946 1153 m 176 1061 l 176 688 l 618 688 l 618 1061 l 176 1061 m 135 1101 l 660 1101 l 660 647 l 135 647 l 135 1101 m 217 982 l 253 989 q 285 873 272 936 q 301 765 299 810 l 263 756 q 249 865 261 801 q 217 982 236 929 m 289 165 l 328 167 q 342 47 336 111 q 346 -64 349 -17 l 306 -65 q 301 47 307 -18 q 289 165 296 111 m 426 179 l 463 183 q 502 72 485 132 q 525 -31 519 13 l 485 -36 q 463 67 479 7 q 426 179 446 128 m 572 201 l 607 208 q 652 122 632 169 q 681 40 672 74 l 642 31 q 615 113 633 65 q 572 201 596 161 m 163 181 l 196 167 q 172 81 186 129 q 142 -15 158 33 q 110 -100 126 -62 l 72 -86 q 108 -1 90 -50 q 139 96 125 47 q 163 181 153 144 m 531 989 l 571 972 q 534 847 553 915 q 496 733 515 779 l 465 746 q 489 822 476 778 q 513 910 501 865 q 531 989 525 954 m 131 510 l 671 510 l 671 467 l 131 467 l 131 510 m 385 1078 l 425 1078 l 425 661 l 425 661 l 425 301 l 385 301 l 385 661 l 385 661 l 385 1078 m 90 321 l 697 321 l 697 281 l 90 281 l 90 321 z "}}}
